<svg width="31" height="30" viewBox="0 0 31 30" fill="none" xmlns="http://www.w3.org/2000/svg">
<g id="facebook-logo-button" clip-path="url(#clip0)">
<g id="Group">
<g id="Group_2">
<path id="Vector" d="M15.7998 0C7.52884 0 0.799805 6.72903 0.799805 15C0.799805 23.2704 7.52884 30 15.7998 30C24.0702 30 30.7998 23.2704 30.7998 15C30.7998 6.72903 24.0714 0 15.7998 0ZM19.5302 15.5281H17.0898C17.0898 19.427 17.0898 24.2262 17.0898 24.2262H13.4736C13.4736 24.2262 13.4736 19.4735 13.4736 15.5281H11.7547V12.4539H13.4736V10.4654C13.4736 9.04133 14.1503 6.81604 17.123 6.81604L19.8027 6.82631V9.81048C19.8027 9.81048 18.1743 9.81048 17.8577 9.81048C17.5411 9.81048 17.091 9.96878 17.091 10.6479V12.4545H19.8462L19.5302 15.5281Z" fill="#7D838A"/>
</g>
</g>
</g>
<defs>
<clipPath id="clip0">
<rect width="30" height="30" fill="white" transform="translate(0.799805)"/>
</clipPath>
</defs>
</svg>
