<svg width="31" height="30" viewBox="0 0 31 30" fill="none" xmlns="http://www.w3.org/2000/svg">
<g id="instagram-logo" clip-path="url(#clip0)">
<g id="Group">
<g id="Group_2">
<g id="Group_3">
<path id="Vector" d="M15.1994 18.0029C16.8544 18.0029 18.2036 16.6561 18.2036 15C18.2036 14.3462 17.9897 13.7426 17.6356 13.2496C17.09 12.4931 16.203 11.9971 15.2013 11.9971C14.1989 11.9971 13.3125 12.4925 12.7657 13.249C12.4104 13.742 12.1984 14.3456 12.1978 14.9994C12.1959 16.6555 13.5439 18.0029 15.1994 18.0029Z" fill="#7D838A"/>
<path id="Vector_2" d="M21.7571 11.3263V8.80918V8.43457L21.3807 8.43578L18.8647 8.44363L18.8744 11.336L21.7571 11.3263Z" fill="#7D838A"/>
<path id="Vector_3" d="M15.2002 0C6.92923 0 0.200195 6.72903 0.200195 15C0.200195 23.2704 6.92923 30 15.2002 30C23.4706 30 30.2002 23.2704 30.2002 15C30.2002 6.72903 23.4718 0 15.2002 0ZM23.731 13.2496V20.2342C23.731 22.0535 22.2519 23.532 20.4338 23.532H9.96657C8.14791 23.532 6.66942 22.0535 6.66942 20.2342V13.2496V9.76698C6.66942 7.94832 8.14791 6.46983 9.96657 6.46983H20.4332C22.2519 6.46983 23.731 7.94832 23.731 9.76698V13.2496Z" fill="#7D838A"/>
<path id="Vector_4" d="M19.8665 14.9999C19.8665 17.572 17.7736 19.6662 15.2003 19.6662C12.627 19.6662 10.5346 17.572 10.5346 14.9999C10.5346 14.3812 10.6578 13.7897 10.8778 13.2495H8.33105V20.2341C8.33105 21.1368 9.06396 21.8679 9.96603 21.8679H20.4327C21.3336 21.8679 22.0677 21.1368 22.0677 20.2341V13.2495H19.5197C19.7415 13.7897 19.8665 14.3812 19.8665 14.9999Z" fill="#7D838A"/>
</g>
</g>
</g>
</g>
<defs>
<clipPath id="clip0">
<rect width="30" height="30" fill="white" transform="translate(0.200195)"/>
</clipPath>
</defs>
</svg>
