<svg width="188" height="81" viewBox="0 0 188 81" fill="none" xmlns="http://www.w3.org/2000/svg">
<g id="&#208;&#155;&#208;&#190;&#208;&#179;&#208;&#190; 2.1" clip-path="url(#clip0)" filter="url(#filter0_d)">
<g id="&#208;&#161;&#208;&#187;&#208;&#190;&#208;&#185; x0020 1">
<g id="2421615120928">
<path id="Vector" fill-rule="evenodd" clip-rule="evenodd" d="M63.2155 17.9964L63.2107 18.0302L63.2675 17.9956L63.2155 17.9964ZM58.9382 67.5959C61.2611 68.2922 63.8595 68.6515 66.7326 68.674C64.6364 68.0904 63.3669 66.9528 62.9223 65.2597C71.8525 59.1674 77.7188 48.8889 77.7188 37.2349C77.7188 26.4097 72.6582 16.7712 64.7822 10.5712L64.7734 10.7175L64.6452 10.7585V10.9755L64.4049 11.0149L64.4602 11.2971L64.4362 11.4177L64.284 11.4812V11.6501L64.2287 11.8036C64.2287 11.8036 64.0389 11.847 64.0749 11.8117C64.111 11.7755 64.0028 11.7393 64.0028 11.7393V11.6356L64.0357 11.5295L64.1678 11.4861L64.1078 11.4258L63.9636 11.482L63.8106 11.5062V11.5785L63.5863 11.6838L63.4734 11.8197L63.3452 11.8535L63.2419 11.9572L63.201 12.0778L63.2419 12.2321L63.3292 12.3197L63.2251 12.4331L63.0569 12.368L63.1097 12.5416L62.8718 12.7708H62.7757L62.6796 12.8584L62.7445 12.9645L62.7926 13.0128L62.6556 13.1004H62.4722L62.1742 13.3994L62.0468 13.6165L61.9099 13.7524L61.7745 14.0273L61.7505 14.2926L61.8786 14.5491L61.7585 14.6697L61.7176 14.9278L61.7897 15.1135L61.9027 15.2252L61.8065 15.3868V15.8933L61.7585 16.0943V16.3692L61.8378 16.4569V16.8677L61.7657 17.1426V17.3677L61.6455 17.5687V17.7713L61.5823 17.9482L61.6544 18.1114H61.7761L61.8706 18.0165H62.0028L62.2239 17.7962L62.3056 17.8766L62.3448 17.8959H62.2959L62.2671 17.9627L62.3993 18.0366L62.4762 18.1709L62.5723 18.2674L62.6564 18.1829V18.0535L62.545 18.0053V17.8847L62.634 17.7882V17.8694L62.7285 17.9418L62.6187 17.9932L62.8094 17.99L62.8246 18.1186V18.2223L62.9856 18.1588V18.0784L63.0425 18.0012L63.2155 17.9988L63.2379 17.8396L63.161 17.7641L63.0032 17.465L63.1474 17.3854L63.2347 17.2962L63.4117 17.2568H63.6192L63.7922 17.2761L63.8691 17.3533C63.8691 17.3533 64.0533 17.3195 64.0933 17.3195C64.1334 17.3195 64.2455 17.2713 64.2455 17.2713L64.3465 17.3726L64.2143 17.5052L64.1662 17.5944H64.4474L64.4794 17.6982L64.5996 17.8187L64.7485 17.7986L64.8238 17.8742L64.9031 18.0286L64.9272 18.3333L65.0305 18.6565L65.1947 18.8936L65.4806 19.179L65.5199 19.3165L65.6809 19.4781L65.7938 19.671L65.8331 19.7828L65.9821 20.0119L66.107 20.1373V20.475L66.059 20.7644L66.1463 21.0538L66.1383 21.3513L66.2272 21.5852L66.2904 21.8433L66.3385 22.0756L66.3866 22.39V22.6963L66.3385 22.8579V23.5581L66.2904 23.8475L66.3385 24.145L66.3233 24.5317V24.7174L66.1623 24.9835L66.059 25.2086L65.9388 25.4337H65.8339L65.6336 25.5141L65.4654 25.6106L65.3493 25.5624V25.4538L65.2892 25.3935L65.2291 25.531V25.6805L65.0561 25.5069V25.5873L65.0241 25.7899L65.0561 25.9258L65.0129 26.0825L64.944 26.1517V26.3599L64.7918 26.3518L64.7269 26.2867L64.7838 26.1026L64.8799 25.9097V25.7481L64.7958 25.5592L64.5339 25.2963L64.4618 25.1122L64.3096 24.9586L64.1654 24.9104L64.1606 24.7536L64.3505 24.5647V24.4031L64.4618 24.2913L64.5908 24.2262L64.7229 24.2696L64.8391 24.153L64.9111 24.0083L64.783 23.8082L64.8463 23.6393L64.767 23.4617L64.7502 23.2775L64.6388 23.124L64.6701 22.9954L64.5811 22.8426L64.5419 22.6657L64.3809 22.4969L64.501 22.3763V22.1995L64.2848 21.9824L64.2535 21.8787H64.1166L63.9243 21.9824L63.8763 22.144L63.7481 22.3522L63.6039 22.5379L63.6672 22.7389L63.499 22.8764L63.3308 22.9729L63.1866 23.0211L63.1474 23.1658H62.9936L62.8422 23.075L62.7293 23.0372V22.8515L62.6011 22.7381L62.4978 22.6344L62.3248 22.591L62.2335 22.6826L61.8971 22.5918L61.664 22.6264H61.4477L61.3588 22.7124L61.1177 22.8032L60.8766 22.755L60.7773 22.5572L60.6603 22.4414C60.6603 22.4414 60.525 22.3602 60.525 22.3281C60.525 22.2959 60.372 22.1753 60.372 22.1753L60.1798 22.144L60.0997 21.951L59.9146 21.8063L59.7873 21.6769L59.6111 21.6287L59.5462 21.4598L59.3852 21.3875L59.2891 21.291L58.9687 21.2588H58.8005L58.6074 21.3634L58.3671 21.324L58.1821 21.3875H57.9819L57.7095 21.5901L57.5806 21.7187L57.3275 21.8682L57.2041 21.992L57.1152 22.2573L57.0503 22.4189L57.1392 22.5323L57.2642 22.431L57.4756 22.6432L57.5405 22.9013L57.4756 23.0388L57.4276 23.3845V23.6015L57.3387 23.8266L57.4588 24.0606L57.5309 24.1329V24.3581L57.3627 24.4063L57.2546 24.6595L57.0984 24.8163L56.834 24.9128L56.5377 24.8887L56.3214 24.8493L55.937 25.0744L55.7687 24.9851L55.6174 24.9289L55.4155 25.0181L55.1272 25.3075L55.0591 25.5447L54.9197 25.6854L54.7347 25.8148L54.4776 25.9354L54.1812 26.2329H53.9241L53.6926 26.3052H53.3634L53.1231 26.3374L52.9068 26.265L52.842 26.1444L52.7306 26.0327H52.4254L52.1443 25.9917L52.033 25.9193L51.6629 25.9724H51.4346L51.2464 26.1605L51.0373 26.2087L50.8379 26.265L50.5495 26.2409L50.3525 26.1565L50.2292 26.0327L50.1122 25.7867L49.9648 25.6371L49.7558 25.5567H49.5555L49.3273 25.617L49.1711 25.4603H48.8579L48.6728 25.3228L48.4566 25.5399L48.3557 25.7449L48.2475 25.8534L48.2163 26.0632L48.3172 26.1838V26.3647L48.4574 26.5046V26.6983L48.2692 26.8238L48.0889 27.0046H47.7045L47.4882 26.9484L47.2623 26.9878L47.1029 26.9395L46.8698 26.8599L46.5887 26.5778L46.4053 26.5215L46.189 26.6107L46.052 26.4732L45.879 26.3961L45.7397 26.5384H45.5634L45.5066 26.7072H45.2991L45.0348 26.876L44.8738 27.036H44.7128L44.6816 27.2048L44.4933 27.2499L44.3612 27.3833L44.1201 27.3745L43.9182 27.4878L43.8149 27.5915L43.5818 27.5521L43.5097 27.4315L43.4224 27.27L43.3776 27.1051L43.2542 27.2289L43.0452 27.311L42.8529 27.2458L42.6367 27.1896V26.9966L42.4684 26.8913L42.4036 26.7466L42.2682 26.659L42.2346 26.466L42.1232 26.3607L41.9726 26.294L41.8733 26.1959H41.6683L41.5689 26.2972L41.3671 26.3293L41.287 26.2489L41.1108 26.2803L40.9258 26.0946V25.974L40.8368 25.8703L40.7095 25.9113L40.6206 26.0954L40.4444 26.1292L40.341 25.9193L40.2842 25.7336L40.2449 25.5254L40.108 25.2842V25.0913L39.9798 24.9707V24.7054L39.8837 24.3822L39.6578 24.1571L39.5665 23.9593L39.4656 23.8596L39.3302 23.8025V23.6578H39.4415L39.5377 23.5292L39.4984 23.4158H39.3542L39.2341 23.5364L38.9409 23.5485L38.8088 23.6811L38.5845 23.7463L38.3923 23.85L38.3033 23.7221L38.1351 23.8017H37.9982L38.0462 23.5847L38.2385 23.497V23.3837H38.0791L37.9349 23.2944L37.846 23.3837L37.685 23.3354L37.7379 23.1465L37.6217 23.0291L37.4607 23.1256L37.2845 23.0774L37.2396 22.9367L37.3406 22.8354V22.6834L37.3814 22.5701L37.3165 22.3691L37.1964 22.3128H37.0522L36.9801 22.1681H36.7799L36.6189 22.0716L36.4427 22.0547L36.3465 22.1922H36.1447L35.9685 22.2405L35.8243 22.1593L35.6481 22.1922H35.4318L35.2228 22.0837H35.1387L35.0474 22.1761L34.8864 22.2075L34.7342 22.1271H34.5972L34.4122 22.0716L34.1398 22.0789L33.9396 22.0379L33.7954 22.0789L33.6665 21.9655L33.483 21.869H33.3148L33.258 22.0467L33.3148 22.1673L33.2019 22.279L33.2908 22.3361L33.4862 22.5323L33.3869 22.6336H33.274L33.137 22.4961L32.9296 22.505L32.7926 22.5612L32.8487 22.7622L32.7926 22.9069L32.6556 22.9479L32.4962 22.9069L32.4313 23.0758L32.4842 23.1931L32.6724 23.3821L32.7037 23.5195L32.8166 23.6313L32.7037 23.7848L32.6004 23.8885H32.4241L32.2439 23.9006L32.151 23.809L32.0877 23.6779H32.0052L31.9195 23.7639H31.7777L31.6216 23.6072L31.5911 23.5163L31.4742 23.3989V23.1939L31.3733 23.0926H31.1882L31.0368 23.1489L30.9808 23.0283L30.8278 22.9077L30.6924 22.8354L30.5074 22.9246L30.3392 22.9487L30.2022 22.9077L30.1061 22.7236L29.9707 22.603L29.8746 22.763H29.7697V22.6352L29.8658 22.5387L29.8025 22.4012L29.7208 22.193L29.6896 21.976L29.5694 21.8312L29.3772 21.7589L29.3211 21.6214L29.2162 21.5177L29.024 21.5491H28.9126V21.3971L28.8558 21.2355L28.6603 21.1993L28.5602 21.3006L28.3752 21.3642L28.2158 21.2765H28.0476L27.9667 21.3971H27.6142L27.5734 21.4847L27.4701 21.5901L27.4532 21.742L27.2562 21.7058L27.1401 21.5893V21.4277L27.1921 21.2709L27.108 21.1865H26.9711L26.915 21.3151L26.8101 21.3923H26.6539L26.4256 21.6214V21.7661L26.2902 21.8224L26.146 21.8144L26.0411 21.9181L25.913 22.0073L25.9658 22.1641L26.082 22.2807L26.0339 22.4905L25.9306 22.5942L26.0339 22.6593L26.2822 22.9013L26.243 23.1111L26.2862 23.3845V23.6064L26.2021 23.6908L26.1228 23.6015L26.0027 23.5847L26.0179 23.7294L26.0868 23.8717L26.1861 23.9714L26.1068 24.0534L25.9698 24.0686H25.6975C25.6975 24.0686 25.6006 24.0807 25.5245 24.0807C25.4484 24.0807 25.4644 24.0204 25.4644 24.0204L25.3443 23.989L25.2882 23.9328L25.144 23.9086V24.0204L25.0311 24.0686L24.8957 24.2302H24.7427L24.5745 24.2785L24.4768 24.2527L24.3943 24.3347V24.4674L24.4784 24.5518L24.5265 24.7054L24.4496 24.998L24.3559 25.0921V25.1483L24.2766 25.2207L24.1003 25.5101V25.7352L24.1484 26.0102L24.1172 26.2184L24.1324 26.4765L23.9401 26.5657L23.812 26.5086L23.627 26.5737L23.4507 26.5327L23.4267 26.3808L23.3394 26.1155L23.3226 25.9217L23.1944 25.8325V25.7288L23.1296 25.56L23.0182 25.4152L23.0903 25.2947L23.1384 25.1572L23.0182 25.0285L22.9774 24.8838L22.8404 24.867L22.8132 24.7825L22.7122 24.6828L22.536 24.6587L22.4231 24.5454L22.3918 24.2873L22.2789 24.1836L22.3101 24.022L22.1748 23.9103L22.1027 23.7245L21.9825 23.6683L21.8055 23.5477L21.7495 23.3539L21.6293 23.1682L21.5885 23.0066L21.5012 22.9913L21.357 22.7976L21.2521 22.8129L21.1872 22.6199L21.2112 22.2501L21.18 21.9768L21.1151 21.8393L21.0358 21.7187L21.0526 21.4775L20.9565 21.3883L20.8916 21.2596L20.9397 21.1149L20.8988 20.9533L20.9877 20.8657L21.0838 20.8488L21.2128 21.0104L21.3329 21.0498L21.3882 20.9292L21.5252 20.8729L21.8047 20.8657L21.9249 20.9051L21.9489 20.7041L21.8856 20.5835L21.9169 20.4798L22.013 20.4951L22.1019 20.5602L22.198 20.6494L22.2701 20.5771L22.3814 20.6253L22.5665 20.6494L22.7034 20.7057L22.7347 20.561L22.6385 20.4887L22.5016 20.4573L22.4127 20.3681L22.3166 20.3367L22.4367 20.2073L22.6129 20.1277L22.7643 20.1928L22.9013 20.1357L23.2217 20.4822L23.3987 20.3046L23.5188 20.2322L23.4876 20.0553L23.6005 19.942L23.7135 19.9589L23.7047 19.831L24.0026 19.79L24.0587 19.6526L24.1236 19.573L23.9866 19.5078V19.339L23.8584 19.1943L23.8104 19.0102L23.6902 18.9378L23.5613 18.7931L23.6093 18.6243L23.5613 18.3735L23.2337 18.1242L23.1768 17.9385L23.0567 17.8421L23.0174 17.7303L23.1215 17.6097L23.2008 17.432V17.2632L23.1135 17.1032L23.0246 16.9658L23.1039 16.9022L23.152 16.7817H23.2481L23.3202 16.7165L23.3771 16.4995L23.3923 16.3708L23.329 16.2092L23.2401 16.12L23.1199 16.1047L23.031 16.0083L22.9589 15.9029L22.8508 15.9946L22.7667 15.9102L22.6946 15.7896L22.7667 15.661L22.9205 15.509L23.0238 15.3884L23.0647 15.2437L23.1848 15.2349L23.2721 15.3313L23.3202 15.4519L23.4812 15.509L23.6334 15.4608L23.7223 15.1231L23.6021 15.0025L23.6814 14.9454L23.6742 14.8096L23.7223 14.6158L23.8112 14.406L23.8745 14.2291L24.0355 14.1809L24.0923 14.0603L24.2461 13.9309V13.6575L24.1092 13.5289L23.9578 13.4879L24.0058 13.3673L24.0451 13.2387L23.9337 13.1253L23.8616 12.9653L23.8857 12.852L24.0371 12.7L24.126 12.5384L24.0851 12.3937L24.2125 12.3624L24.4055 12.2418V12.0729L24.4864 11.9765L24.6867 11.9676L24.774 11.8639L24.782 11.7433L24.9502 11.6782L25.0871 11.4941L25.2706 11.5021L25.4316 11.4057L25.6478 11.4539L25.6791 11.3333L25.7512 11.2609L25.8881 11.3261L26.0011 11.4467L26.1773 11.5029L26.2422 11.6476L26.3054 11.8076L26.4016 11.7112L26.3863 11.4788L26.2422 11.3494V11.076L26.3703 11.0447L26.4112 11.0037L26.2334 10.9313L26.13 10.8107L27.9266 10.8035L28.263 10.6829V10.4731L28.3191 9.94167H28.5434L28.7364 9.78892V9.57909L28.8806 9.52281V9.24786L29.0096 9.24063L29.2891 9.01552L29.4261 9.07904L29.7216 8.5227L29.7433 8.37478L29.986 8.12877H30.3953L30.5242 7.90366V7.46873L31.1169 7.16966L31.3516 7.2589H31.4886L31.5983 7.37226L31.7369 7.27578L31.7033 7.44461L31.8386 7.42773L32.0309 7.43577V7.5652L32.0717 7.70991L31.9828 7.65283L31.8907 7.56118L31.8066 7.6456L31.849 7.79754V7.9519L31.9828 8.02426L32.0893 8.12797V8.29679L32.2055 8.35307V8.54361L32.3376 8.67626L32.4025 8.90136V9.13531L32.3617 9.3363L32.4097 9.44966L32.4145 9.69406L32.5539 9.83635L32.5459 10.0132L32.5114 10.3026L32.3721 10.5487L32.1598 10.7617H31.9339L31.6872 10.8099L31.471 10.7295L31.2347 10.5969L31.0857 10.4474V10.2303L30.9343 10.0783L30.8622 9.90951L30.8038 9.74792L30.7004 9.57105L30.6444 9.27198L30.533 9.22375L30.5691 9.04286L30.6596 8.9504L30.5482 8.83705L30.4962 8.97854L30.4193 9.05411L30.4529 9.23259L30.4561 9.4376L30.3688 9.52523L30.4858 9.6426L30.4545 9.81947L30.3416 10.0703L30.1445 10.1306L29.9884 10.2874L29.9283 10.5728L29.7809 10.7223L29.829 10.8911L29.901 11.0994L29.7841 11.3052L30.1253 11.6476L30.3256 11.5029L30.3664 11.302L30.2631 11.1966L30.2783 11.0198V10.8823L30.4153 10.7376H30.5522L30.6003 11.1002L30.6436 11.3381L30.7829 11.4788L30.8718 11.6645L31.1001 11.7313L31.1682 11.6645L31.1121 11.5271L31.2491 11.4137L31.2563 11.1315L31.5046 11.1709L31.7377 11.0833L31.9299 11.187L32.1462 11.1211H32.2952L32.3865 11.2119L32.5235 11.4217L32.4105 11.5351V11.712L32.5114 11.5882L32.6516 11.4467L32.8439 11.4073L33.0049 11.1733V10.9723L33.0681 10.8349L33.2772 10.7311V10.6017L33.4774 10.4811V10.2809L33.4462 10.0872H33.5832L33.6264 10.1885L33.8066 10.3694L33.9436 10.5776V10.8598L33.8955 11.0045L33.8235 11.0768L33.7033 10.9563L33.5351 10.9153L33.278 11.0045V11.2143L33.3429 11.4073V11.5673L33.5263 11.6155L33.7033 11.6975L33.9036 11.601V11.4563L34.1126 11.4081L34.3129 11.5045L34.2816 11.3751L34.5948 11.4322L34.763 11.3984L35.0666 11.4394H35.2436L35.3309 11.601H35.4126V11.4563L35.6681 11.3751H35.8051L35.8612 11.5849H35.709L35.6609 11.7296L35.5408 11.7707L35.7258 11.9395H35.8539L36.095 11.8342L36.3233 11.8792L36.5716 12.1284L36.6557 12.044H36.8239L37.0378 11.9757L37.1219 12.0601L37.0979 12.1718L36.9689 12.2611V12.3985L37.1219 12.5272L37.1339 12.3776L37.202 12.3093L37.363 12.3503V12.2209L37.5144 12.1967L37.5464 12.0038L37.5224 11.7715L37.6666 11.6991L37.7915 11.6629L37.9405 11.8108L38.0038 11.7473L38.1688 11.9523L38.5084 12.2932L38.6085 12.4982L38.7967 12.6888L38.9257 12.8897L39.0611 13.0755V13.2354L39.174 13.4131L39.335 13.3166V13.1478L39.5184 12.979L39.3903 12.938L39.3014 12.7298L39.335 12.5039L39.1812 12.3993L39.0971 12.2257L39.174 12.1501L39.335 12.0689V11.9403L39.3743 11.7473L39.4463 11.6509V11.5303L39.343 11.4965L39.3991 11.3365L39.488 11.2232L39.649 11.1669L39.8204 11.0825L40.0174 10.8847L40.2898 10.2657L40.4428 10.1845L40.5389 10.3219H40.7311L40.8272 10.4184H40.9954L41.0675 10.6918L40.9858 10.7738L40.9498 11.0664L40.7215 11.2955L40.6582 11.5053L40.7936 11.6259L40.7063 12.1163L40.5453 12.3575L40.4892 12.7048L40.4003 13.0095L40.3354 13.1639L40.3955 13.3761L40.5373 13.5168L40.5133 13.6463L40.3354 13.7821L40.3042 14.0812L40.128 14.1294L39.9189 14.3377L39.7988 14.5153L39.6858 14.5788L39.4856 14.5394L39.3654 14.6198L39.2333 14.5354L39.1492 14.451L39.029 14.41V14.5628L39.1492 14.7469L39.2693 14.8056L39.4303 14.9173L39.5657 14.9093L39.6618 15.0467H39.806C39.806 15.0467 39.8669 14.9374 39.8348 14.9044C39.8028 14.8723 39.9189 14.82 39.9189 14.82H40.0222L40.0703 14.7718L40.2722 14.7155L40.4316 14.6263V14.4574L40.7295 14.16L40.7776 13.967L40.7367 13.7982L40.7199 13.6463L40.9362 13.4292H41.1044L41.2894 13.4051L41.3423 13.5618L41.4176 13.6358L41.5137 13.8866L41.3855 14.0153L41.3935 14.3288L41.5545 14.4888L41.7396 14.5314V14.418L41.5593 14.3666L41.4904 14.2975V14.201L41.476 14.0563L41.6034 14.0169L41.6514 13.9116L41.6034 13.7596L41.6595 13.631L41.5802 13.4694L41.412 13.3078L41.2149 13.2395L41.1036 13.1261L41.0099 13.2202L40.8897 13.2764L40.8264 13.1888H40.6823L40.6582 13.0345L40.7543 12.938L40.7303 12.6815L40.8417 12.5039L40.9137 12.2956L41.0747 12.134L40.9714 11.8036L40.9906 11.6388L40.8745 11.5222L41.2021 11.1918H41.3703L41.4664 11.0375L41.5313 10.8686L41.4752 10.7328L41.5313 10.6122H41.6587L41.6194 10.781V11.0133L41.5858 11.2232L41.4416 11.3679V11.7136L41.7067 11.9234L41.8317 11.8478L42.092 12.1019V12.0054L42.0407 11.88L41.947 11.7883L41.8028 11.716V11.6509L41.6827 11.5303L41.6266 11.3526L41.7948 11.2409L42.0039 11.4507L42.1 11.3614L42.0664 11.2569L42.0543 11.1637L42.1473 11.072L42.3066 11.1034L42.4388 11.0833L42.5469 11.1918L42.756 11.3036L42.6999 11.4652L42.893 11.6581H43.1092L43.1405 11.5295L43.0516 11.4089L43.0604 11.2955L42.9066 11.2392L42.7952 11.0535L42.7304 10.9884L42.7784 10.7955L42.8505 10.6355L42.7856 10.5704L42.7464 10.3702L42.9058 10.2255H43.283L43.4753 10.2978V10.2496H43.7885L43.9975 10.1603H44.1489L44.229 10.0808L44.1489 9.96016L44.0528 9.9264L43.9727 9.84681L44.0648 9.75516C44.1249 9.69486 44.1249 9.81545 44.1249 9.81545L44.221 9.79133L44.1561 9.71898L44.201 9.61768L44.1321 9.55015L44.2138 9.43679L44.3251 9.34755L44.2138 9.33951L44.205 9.21892L44.4309 9.22616L44.5182 9.04205L44.7392 8.95764L44.8233 8.87323L44.8682 8.86679H44.8642L45.1237 8.8274L45.2006 8.75183L45.4169 8.68671L45.4641 8.63124L45.3199 8.5822L45.3992 8.50019L45.6083 8.45196L45.7845 8.42784L45.8254 8.34021L45.9695 8.31689L45.8926 8.4616V8.57737L45.9936 8.47768L46.2419 8.48492L46.2659 8.35548L46.4269 8.32333L46.5855 8.35468L46.5142 8.25901L46.4181 8.18585L46.37 8.09822H46.547L46.7305 8.04114H46.7873L46.7705 7.90527L46.7056 7.85704V7.66409L46.7465 7.53465L46.8666 7.23719L47.0108 7.13348L47.139 6.99601L47.3 7.09248L47.4201 7.0756L47.4562 7.24121L47.3312 7.36502L47.2279 7.5025L47.4818 7.51616L47.5314 7.46632H47.6876L47.8038 7.58289L47.7005 7.68901C47.7005 7.68901 47.6916 7.79272 47.7397 7.79272C47.7878 7.79272 47.9175 7.8498 47.9175 7.8498L47.9568 7.71233L47.8847 7.63997L48.0617 7.5435H48.2211L48.3869 7.42692L48.4782 7.51857L48.6032 7.45828L48.6945 7.54993L48.7738 7.71152L48.8699 7.79192L48.9268 7.7284L49.119 7.92216L49.1022 8.09098L48.9412 8.05802L49.0061 8.12314L49.1671 8.21238L49.2664 8.38523L49.1743 8.47688V8.63847L49.095 8.75183L49.0181 8.9086L48.926 9.00025L48.765 9.1932V9.27359L48.7169 9.4995L48.5968 9.62009L48.5487 9.86932L48.3565 9.91755L48.2964 10.0984L48.1642 10.2311L48.133 10.4409L48.0921 10.5856L48.2363 10.5205L48.2051 10.3605L48.3493 10.2713C48.3493 10.2713 48.4766 10.2303 48.5487 10.2303C48.6208 10.2303 48.6448 10.0856 48.6448 10.0856L48.7818 9.97383L48.9099 9.92559L48.9868 9.77606L48.9268 9.71576L48.8306 9.70772L48.8378 9.6426L48.8306 9.51317L48.9508 9.50593H49.0469L49.1823 9.53809L49.3433 9.60321L49.3745 9.50674L49.4754 9.36685L49.5595 9.45126V9.61125L49.6557 9.74872H49.7686L49.6557 9.64502L49.8799 9.41991L50.0818 9.31379L50.3853 9.25751L50.6256 9.18516L50.6857 9.27761L50.6312 9.33469L50.7642 9.46734H51.0109L51.0197 9.40222L51.0438 9.31298L51.1399 9.46734L51.3081 9.40222L51.4763 9.25751C51.4763 9.25751 51.6525 9.22616 51.6926 9.22616C51.7326 9.22616 51.6926 9.08145 51.6926 9.08145L51.6685 8.91985L51.5484 8.73414L51.5796 8.54923L51.6036 8.45276L51.6998 8.54923L51.8007 8.47206L51.8848 8.55647L52.0129 8.64571L52.0442 8.54923L52.1091 8.53235L52.1747 8.60471L52.2364 8.55647C52.2364 8.55647 52.2284 8.40694 52.2885 8.40694C52.3197 8.40694 52.3397 8.38684 52.3518 8.36674L52.367 8.33217L52.5416 8.46804L52.5977 8.41256L52.7907 8.47608L52.729 8.67304H52.8187L52.9108 8.7655V8.91905L53.0646 8.82177L53.1439 8.90056V9.07984L53.0406 9.11039L52.9757 9.1739L53.0887 9.28726C53.0887 9.28726 53.176 9.24786 53.176 9.20767C53.176 9.16747 53.2481 9.28002 53.2481 9.28002V9.40865L53.4131 9.40383L53.5692 9.5606L53.6894 9.64341L53.8576 9.67396L53.9297 9.6016L54.1131 9.69807L54.1299 9.54613L54.0498 9.28083L54.0018 9.16023V9.04688L53.8969 8.94236V8.79685L54.0987 8.82097L54.21 8.93352L54.3879 8.88528H54.5873L54.5472 8.67867L54.6602 8.46884L54.8692 8.4206L55.0214 8.41256L55.1968 8.4608V8.34021L55.0094 8.25499L55.1656 8.08696L55.317 8.09581L55.4371 7.97522L55.3819 7.94145L55.2617 7.82086L55.1248 7.7485V7.57163L55.0687 7.5234L54.9894 7.73323L54.8933 7.66811V7.49928L55.0695 7.33769L55.0455 7.22594L54.8773 7.12062L54.9806 7.01691H55.1344L55.3586 6.90355L55.4243 6.71945L55.7191 6.60609L55.9522 6.50238C55.9522 6.50238 55.9834 6.53374 55.9834 6.58198C55.9834 6.63021 55.8312 6.68729 55.8312 6.68729L55.7744 6.90436L55.9113 6.83924L56.0315 6.71865L56.1837 6.76688L56.1444 7.08042L56.2798 6.95099V6.79824L56.2317 6.54017L56.2662 6.42842L56.3382 6.22583L56.5065 6.14543L56.7467 6.04172L56.8909 6.14543C56.8909 6.14543 56.8228 6.23789 56.7708 6.29014C56.7187 6.3424 56.8252 6.37938 56.8252 6.37938H57.0015L57.1144 6.24995L57.2658 6.41154C57.2898 6.43566 57.2418 6.22583 57.2418 6.22583L57.3707 6.15347C53.2641 4.36871 48.7361 3.37744 43.9759 3.37744C30.4281 3.37744 18.7466 11.3928 13.3784 22.956C23.8184 45.2253 38.8384 61.5406 58.9086 67.5951L58.9374 67.604L58.9382 67.5959ZM58.1581 6.49917C60.0268 7.36904 61.8025 8.40452 63.467 9.58793C63.4718 9.67074 63.4974 9.75435 63.5447 9.82912L63.6096 9.92961L63.6152 10.092L63.6544 10.375C63.6616 10.4884 63.7065 10.6001 63.7898 10.6877C63.8026 10.7834 63.8426 10.8759 63.9099 10.9522L63.9083 10.9675L63.8338 10.9965L63.7754 11.0053C63.6208 11.0165 63.4854 11.0986 63.4013 11.2191L63.3765 11.2312C63.3124 11.2618 63.2531 11.306 63.2051 11.3639L63.1962 11.3743C63.1226 11.3976 63.0521 11.4394 62.9936 11.4981L62.8903 11.6026C62.8382 11.6549 62.7966 11.7208 62.7709 11.7956L62.7309 11.9162C62.7205 11.9467 62.7133 11.9789 62.7085 12.011C62.6259 12.093 62.5739 12.2024 62.5627 12.3189C62.5202 12.339 62.4802 12.3656 62.4433 12.3993L62.38 12.4572C62.3064 12.5127 62.2519 12.5859 62.219 12.6679C62.1838 12.6888 62.151 12.7145 62.1205 12.745L61.825 13.0441C61.7953 13.0739 61.7689 13.1076 61.7465 13.1454L61.6536 13.3038L61.5622 13.3938C61.523 13.4324 61.4902 13.4774 61.4645 13.5297L61.33 13.8046C61.3035 13.8585 61.2867 13.918 61.2811 13.9807L61.2571 14.246C61.2499 14.3264 61.2619 14.41 61.2955 14.4888C61.2827 14.5218 61.2739 14.5563 61.2683 14.5925L61.2322 14.8208C61.2122 14.9133 61.2178 15.0138 61.2547 15.1086L61.3203 15.2767C61.3123 15.312 61.3083 15.3482 61.3083 15.3852V15.8418L61.2875 15.9303C61.2699 15.9817 61.2611 16.0364 61.2611 16.0927L61.2619 16.3676C61.2619 16.4609 61.2875 16.5549 61.3404 16.6369V16.8058L61.2955 16.977C61.2779 17.0285 61.2683 17.0831 61.2683 17.1402V17.2262L61.2386 17.2777C61.1818 17.3589 61.1481 17.4586 61.1481 17.5655C61.1481 17.7038 61.1529 17.662 61.1161 17.7769C61.0744 17.8935 61.076 18.0262 61.1305 18.1484L61.1858 18.273C61.2539 18.4683 61.4389 18.6082 61.6568 18.6082L61.7785 18.6066C61.8834 18.6066 61.9876 18.5737 62.0757 18.5077L62.1077 18.5021L62.2215 18.6171C62.3744 18.7706 62.6019 18.8036 62.7869 18.716C62.8598 18.7224 62.9351 18.7119 63.008 18.6838L63.1394 18.6323C63.2139 18.6082 63.2803 18.5672 63.3356 18.5142C63.3837 18.5021 63.4285 18.4828 63.4702 18.4579L63.5271 18.4233C63.7209 18.3059 63.8066 18.0776 63.7521 17.8686C63.841 18.0037 63.994 18.0921 64.1678 18.0921H64.1726L64.2487 18.1685C64.2984 18.2191 64.3585 18.2577 64.425 18.2834L64.433 18.3711C64.4362 18.4088 64.4434 18.4474 64.4554 18.4844L64.5571 18.8004C64.5715 18.8486 64.594 18.8944 64.6236 18.9378L64.7662 19.1437C64.787 19.1798 64.8134 19.2144 64.8439 19.2458L65.0393 19.4419C65.0609 19.5247 65.1042 19.6035 65.1691 19.6686L65.29 19.79L65.3413 19.8777L65.3653 19.946C65.3781 19.983 65.3957 20.0192 65.4174 20.0537L65.5575 20.27L65.6088 20.3407V20.4388L65.5728 20.6583C65.5551 20.7387 65.5575 20.8247 65.5824 20.9099L65.648 21.1278L65.6432 21.2998C65.6352 21.3762 65.644 21.4542 65.6729 21.5306L65.753 21.742L65.8058 21.9575L65.8459 22.1504L65.8883 22.4262V22.6264L65.8707 22.6866C65.8515 22.7397 65.8403 22.7976 65.8403 22.8579V23.5219L65.8002 23.7655C65.7914 23.8178 65.7914 23.8725 65.8002 23.9279L65.8411 24.1788C65.8363 24.3114 65.8259 24.4489 65.8259 24.5816L65.7121 24.7737L65.6152 24.9835L65.5912 24.9932C65.5607 24.9699 65.5271 24.9498 65.4911 24.9337C65.31 24.8533 65.1066 24.8911 64.9656 25.0125L64.96 25.0133L64.9264 24.9297C64.9023 24.8678 64.8663 24.8107 64.8174 24.7608C64.9127 24.7431 65.0041 24.6973 65.0778 24.6234L65.1923 24.506C65.2291 24.469 65.2612 24.4256 65.2852 24.3765L65.3421 24.2624C65.4334 24.1064 65.4366 23.9062 65.3341 23.7422C65.3549 23.6425 65.3461 23.5356 65.302 23.4351L65.2556 23.3314L65.25 23.2663C65.2484 23.1754 65.2219 23.0854 65.1699 23.0042C65.1715 22.9158 65.1506 22.8257 65.1034 22.7437L65.0521 22.6553L65.0345 22.5757C65.0273 22.5347 65.0145 22.4945 64.9969 22.4559L65.0033 22.3755V22.1987C65.0033 22.0708 64.9544 21.9422 64.8575 21.8449L64.7293 21.7163C64.6628 21.5193 64.4762 21.377 64.2567 21.377L64.1198 21.3778C64.0397 21.3778 63.9596 21.3971 63.8843 21.4373L63.7025 21.5354C63.5847 21.5949 63.491 21.7018 63.451 21.8385L63.4221 21.935L63.3332 22.0797L63.2379 22.2027C63.1602 22.2895 63.1137 22.4029 63.1097 22.5218L63.1065 22.5226L62.8534 22.2807C62.7918 22.2188 62.7133 22.1721 62.6219 22.1488L62.4762 22.1118C62.3592 22.0756 62.2319 22.0829 62.1197 22.1351L62.0597 22.1183C61.9876 22.0933 61.9083 22.0853 61.8274 22.0974L61.6343 22.1263L61.4501 22.1279C61.346 22.1279 61.2411 22.1601 61.1529 22.226C60.9719 22.0419 60.8061 21.8835 60.533 21.7018C60.5017 21.6471 60.4609 21.5981 60.408 21.5571L60.2526 21.4349L60.1437 21.3256C60.1301 21.3119 59.9931 21.2202 59.9843 21.2162C59.9338 21.1246 59.8545 21.0482 59.752 21.0024L59.6751 20.9678L59.6431 20.9357C59.5646 20.8577 59.4597 20.8046 59.3411 20.7925L58.9719 20.7564L58.8037 20.7572C58.7236 20.7572 58.6435 20.7765 58.5682 20.8167L58.5233 20.8408L58.46 20.8303C58.3791 20.8159 58.2942 20.8207 58.2109 20.8488L58.106 20.885L57.9851 20.8866C57.8817 20.8866 57.7776 20.9188 57.6887 20.9847L57.43 21.1768L57.3643 21.2315L57.2762 21.3191L57.0984 21.4244C57.0551 21.4478 57.0151 21.4767 56.9782 21.5137L56.8549 21.6375C56.8028 21.6906 56.7612 21.7557 56.7363 21.8312L56.6538 22.0789L56.6026 22.2059C56.5265 22.3715 56.5425 22.5725 56.6626 22.726L56.7548 22.8434C56.8164 22.9198 56.8949 22.9737 56.9814 23.0034L56.943 23.2784C56.9358 23.3121 56.9318 23.3475 56.9318 23.3829V23.5051L56.8797 23.6417C56.8284 23.7712 56.8316 23.9207 56.8997 24.0542L56.9438 24.1394L56.9085 24.2069L56.8381 24.3717L56.8244 24.3854L56.7708 24.4047L56.5906 24.3902L56.4191 24.3597C56.303 24.3363 56.178 24.3548 56.0683 24.4208L55.9225 24.5084L55.8 24.4634C55.6806 24.4167 55.5445 24.4159 55.4187 24.4714L55.2393 24.551C55.176 24.5759 55.1167 24.6137 55.0655 24.6644L54.7771 24.9546C54.7187 25.0125 54.6746 25.0864 54.6498 25.1716L54.6169 25.2858L54.5985 25.3043L54.488 25.3823L54.2885 25.4755C54.2293 25.5005 54.174 25.5366 54.1267 25.5849L53.9785 25.7336L53.9257 25.7344C53.8776 25.7344 53.828 25.7416 53.7799 25.7569L53.6229 25.806L53.365 25.8076L53.224 25.822L53.0879 25.683C52.9973 25.5905 52.8716 25.5334 52.7322 25.5334H52.4567L52.3237 25.5141C52.2236 25.4426 52.0962 25.4072 51.9649 25.4257L51.6365 25.4723L51.437 25.4739C51.3105 25.4739 51.1831 25.5222 51.0862 25.6194L50.9989 25.7071L50.7954 25.7609L50.6705 25.7505L50.6401 25.7368L50.5736 25.5969C50.5495 25.5391 50.5135 25.4836 50.467 25.437L50.3445 25.3131C50.2924 25.252 50.2243 25.203 50.1442 25.1725L49.956 25.1001C49.8951 25.0736 49.8287 25.0591 49.7582 25.0591L49.5579 25.0599L49.4746 25.0671C49.3913 25.0028 49.2864 24.9642 49.1727 24.9642H49.0245L48.9828 24.9329C48.7866 24.7769 48.499 24.7914 48.3196 24.9747L48.1098 25.1853C48.0705 25.2239 48.0377 25.2689 48.012 25.3212L47.9496 25.449L47.8967 25.5029C47.8238 25.576 47.7725 25.6725 47.7565 25.7826L47.7253 25.9925C47.7061 26.1211 47.7365 26.2562 47.8214 26.3695C47.8214 26.4162 47.8278 26.4628 47.8414 26.5086H47.7597L47.6508 26.4805C47.5739 26.4539 47.4906 26.4459 47.4049 26.4604L47.2936 26.4797L47.1398 26.429L46.9403 26.2296C46.8843 26.1734 46.8138 26.13 46.7329 26.105L46.5655 26.0536C46.4798 26.0246 46.3852 26.0182 46.2931 26.0399L46.0801 25.9434C45.899 25.8638 45.6804 25.8976 45.5314 26.0439C45.3936 26.0528 45.2647 26.1203 45.1774 26.228C45.1269 26.2409 45.078 26.2618 45.0324 26.2907L44.7881 26.4467C44.7504 26.4676 44.716 26.4949 44.684 26.5263L44.6671 26.5432C44.4997 26.5585 44.3508 26.659 44.2723 26.8069C44.2338 26.8262 44.197 26.8503 44.1641 26.88C44.0672 26.8712 43.9671 26.8905 43.8766 26.9419L43.8517 26.9556C43.8285 26.8824 43.7877 26.8133 43.73 26.7554C43.545 26.5697 43.2494 26.5609 43.054 26.7289C43.0155 26.6694 42.9635 26.6171 42.8994 26.5769L42.8601 26.552C42.8297 26.4813 42.7832 26.417 42.7208 26.3655C42.7007 26.2706 42.6527 26.1798 42.5774 26.1082L42.4861 26.0214C42.4412 25.974 42.3867 25.9338 42.3235 25.9065L42.2554 25.8759L42.249 25.8687C42.1577 25.7642 42.0231 25.6982 41.8741 25.6982L41.6691 25.6998C41.581 25.6998 41.4929 25.7232 41.4152 25.7698L41.3759 25.7609C41.3575 25.7232 41.3343 25.6862 41.3054 25.6524L41.2165 25.5487C41.0988 25.4104 40.9089 25.3437 40.7247 25.3879C40.7143 25.3509 40.6991 25.3156 40.6799 25.281L40.6094 25.1564L40.6078 25.0929C40.6078 24.9731 40.5653 24.8541 40.4812 24.76L40.4804 24.7062C40.4804 24.6587 40.474 24.6113 40.4596 24.5631L40.3627 24.2407C40.3394 24.1627 40.297 24.0887 40.2345 24.0268L40.0767 23.8701L40.0022 23.7149C40.0455 23.6072 40.0511 23.4842 40.0102 23.366L39.9838 23.2904C39.9277 23.0758 39.7331 22.9166 39.5008 22.9166H39.3566C39.2349 22.9166 39.1139 22.9608 39.0186 23.0492L38.9746 23.05C38.8688 23.0436 38.7623 23.0701 38.671 23.1304C38.5845 22.9833 38.4243 22.8844 38.2417 22.8844H38.2216L38.1287 22.8346L37.9797 22.6802C37.9501 22.6497 37.9165 22.6239 37.8812 22.6022C37.8852 22.5419 37.878 22.4792 37.8588 22.4189L37.8003 22.2372C37.7627 22.1006 37.6674 21.9808 37.5296 21.9173L37.359 21.8401C37.2677 21.7356 37.1339 21.6697 36.9841 21.6697H36.9184L36.8784 21.6455C36.8159 21.6077 36.7446 21.5836 36.6677 21.5772L36.5212 21.5635C36.3706 21.541 36.2136 21.5893 36.1006 21.6986L36.0382 21.709C35.9469 21.6664 35.8427 21.6512 35.737 21.6713L35.6128 21.6946H35.5552L35.4887 21.66C35.4126 21.6134 35.3237 21.586 35.2276 21.586L35.1435 21.5877C35.057 21.5877 34.9713 21.6102 34.8944 21.6544C34.8455 21.6383 34.7934 21.6295 34.739 21.6295H34.6725L34.5588 21.5965C34.5099 21.582 34.4586 21.5748 34.405 21.5756L34.1871 21.5812L34.075 21.5587C34.0277 21.5458 33.978 21.5394 33.9276 21.541L33.7578 21.451C33.6801 21.4003 33.5872 21.3714 33.4878 21.3714L33.3196 21.373C33.109 21.373 32.9135 21.5081 32.8463 21.7195L32.795 21.8795C32.7766 21.9301 32.7662 21.984 32.7646 22.0395L32.6108 22.1022C32.4594 22.1641 32.3512 22.2943 32.3144 22.4471C32.1903 22.4977 32.0869 22.5974 32.0357 22.7325L31.9716 22.9021C31.958 22.9383 31.9484 22.9761 31.9436 23.0139C31.9187 22.952 31.8819 22.8933 31.8322 22.8434L31.7345 22.7453C31.644 22.6529 31.5182 22.5958 31.3789 22.5958H31.2403L31.141 22.5186L31.0673 22.4704L30.9319 22.398C30.7973 22.3265 30.6315 22.3168 30.4842 22.3876L30.481 22.3892C30.4121 22.3209 30.3376 22.2557 30.2623 22.1946L30.2118 22.0652L30.1878 21.9068C30.1758 21.8184 30.1389 21.7316 30.0781 21.6584L29.9707 21.5298C29.9171 21.459 29.8434 21.4019 29.7553 21.3674C29.7336 21.3312 29.708 21.2974 29.6768 21.2669L29.5718 21.1632C29.5014 21.094 29.4116 21.0466 29.3131 21.0281C29.2474 20.8858 29.1169 20.7765 28.9511 20.7459L28.7645 20.7113C28.6299 20.684 28.4857 20.7138 28.3696 20.7998C28.3231 20.7853 28.2727 20.7773 28.2206 20.7773L28.0524 20.7789C27.9354 20.7789 27.8209 20.8199 27.7296 20.8979H27.6191L27.5349 20.9051L27.4933 20.8633C27.402 20.7556 27.2658 20.688 27.1136 20.688L26.9767 20.6888C26.8165 20.6888 26.6627 20.7676 26.5682 20.9027C26.4712 20.9204 26.3783 20.9678 26.3046 21.0434L26.1076 21.242C26.0764 21.2685 26.0483 21.2998 26.0243 21.3336C25.9434 21.3545 25.8665 21.3971 25.8024 21.4598L25.7263 21.5346L25.6358 21.5981C25.458 21.7211 25.3747 21.9518 25.4468 22.1673L25.5045 22.3442C25.3683 22.5765 25.442 22.8772 25.6711 23.0211L25.7343 23.0605L25.7512 23.0766L25.752 23.1578C25.6326 23.2293 25.5461 23.3499 25.5189 23.489C25.474 23.4665 25.4252 23.4496 25.3723 23.4408L25.265 23.4231C25.2273 23.4142 25.1881 23.4094 25.148 23.4094C24.943 23.4094 24.766 23.534 24.6899 23.7125L24.665 23.7382L24.5681 23.7631C24.4151 23.7358 24.2509 23.7808 24.1324 23.8982L24.0755 23.9545C23.9682 24.0461 23.9001 24.1828 23.9001 24.3355V24.4682C23.9001 24.5695 23.9305 24.6708 23.9914 24.7568C23.9538 24.7978 23.9233 24.8461 23.9009 24.8983L23.856 24.9602L23.6974 25.2223C23.6574 25.2794 23.6286 25.3461 23.6149 25.4177L23.5965 25.3726L23.6141 25.3228C23.6734 25.1524 23.639 24.9546 23.5068 24.8147L23.4692 24.7713C23.4315 24.6081 23.3146 24.4722 23.156 24.4143L23.0671 24.3275C23.0174 24.2785 22.9581 24.2399 22.8909 24.215C22.8804 24.1434 22.8548 24.0751 22.814 24.0124C22.8116 23.8717 22.7491 23.7326 22.6329 23.6361L22.5993 23.608L22.5737 23.542C22.5288 23.4263 22.4407 23.3266 22.319 23.2703L22.2397 23.2333L22.2381 23.2285C22.2252 23.1779 22.2036 23.1288 22.174 23.0822L22.1003 22.968L22.0819 22.8957C22.0474 22.7445 21.9441 22.6159 21.8015 22.5516L21.7695 22.5082C21.7503 22.4816 21.7294 22.4575 21.7054 22.435L21.7134 22.3072C21.7182 22.2702 21.7182 22.2324 21.7134 22.1938L21.6814 21.9205C21.6758 21.8674 21.6606 21.8152 21.6365 21.7637L21.55 21.586L21.5556 21.5008C21.6205 21.4695 21.6782 21.4244 21.7254 21.3674L21.7535 21.373C21.7911 21.3875 21.832 21.3979 21.8736 21.4027C22.0891 21.4285 22.2885 21.3119 22.379 21.127L22.4415 21.135L22.512 21.164C22.5416 21.1768 22.5729 21.1873 22.6057 21.1945C22.8164 21.2403 23.0246 21.1447 23.1328 20.9718C23.2905 21.0032 23.4604 20.9574 23.5821 20.8344L23.7207 20.6953L23.7824 20.6583C23.8905 20.5932 23.9698 20.4887 24.005 20.3673C24.0411 20.3423 24.0731 20.3126 24.1011 20.2788C24.2621 20.2483 24.4055 20.1389 24.4712 19.9749L24.5 19.9042C24.5321 19.8688 24.5593 19.8278 24.5801 19.7828C24.6738 19.5834 24.6242 19.3519 24.4728 19.208C24.4536 19.1348 24.4175 19.0657 24.3647 19.0054L24.3158 18.9499L24.2982 18.8816C24.2701 18.7738 24.2069 18.6758 24.1132 18.6058L24.1043 18.5262L24.0563 18.2754C24.0339 18.1556 23.9674 18.0439 23.8616 17.9667L23.6678 17.8212L23.6254 17.7078L23.643 17.6684C23.6822 17.5969 23.7047 17.5149 23.7047 17.4272L23.7023 17.2584C23.7023 17.1965 23.691 17.1346 23.6678 17.0751C23.7335 17.0132 23.7824 16.9328 23.8072 16.8395L23.8576 16.649C23.8681 16.6185 23.8745 16.5855 23.8785 16.5525L23.8929 16.4239C23.9017 16.3459 23.8929 16.2639 23.8616 16.1851L23.8096 16.0517C23.7976 16.0131 23.7807 15.9761 23.7591 15.9415C23.9321 15.8981 24.0755 15.7631 24.122 15.5781L24.1949 15.2935C24.2397 15.1713 24.2357 15.0355 24.1836 14.9157L24.1804 14.8538L24.2013 14.771L24.2629 14.6247C24.3591 14.5764 24.4408 14.496 24.4904 14.3907L24.5016 14.3658L24.5353 14.3377C24.665 14.2468 24.7499 14.0965 24.7499 13.926L24.7491 13.6527C24.7491 13.5184 24.6963 13.385 24.5905 13.2869L24.5473 13.2459C24.5497 13.1462 24.5225 13.0457 24.4656 12.9589L24.5681 12.774L24.5977 12.7089L24.649 12.6767C24.7491 12.622 24.8292 12.5336 24.8733 12.4259C24.9486 12.3969 25.0175 12.3487 25.0727 12.2828L25.1392 12.2032C25.1697 12.1718 25.1953 12.1373 25.2161 12.0987C25.2626 12.0705 25.3042 12.0343 25.3411 11.9901C25.4035 11.9821 25.4652 11.962 25.5229 11.9282L25.5405 11.9322C25.6366 11.9548 25.7335 11.9475 25.82 11.9162L25.8417 11.9708C25.8657 12.0376 25.9042 12.0995 25.9578 12.1533C26.1525 12.3487 26.468 12.3487 26.6635 12.1533L26.7588 12.0561C26.8565 11.958 26.9126 11.8205 26.9038 11.6718L26.8878 11.4394C26.8846 11.3912 26.8749 11.3438 26.8581 11.2979L27.8898 11.2939C27.9587 11.2995 28.03 11.2915 28.0996 11.2666L28.4224 11.1508C28.6227 11.0857 28.7677 10.8968 28.7677 10.6741V10.4787L28.7789 10.375L28.8566 10.3244L29.0128 10.2005C29.1241 10.1282 29.2042 10.0116 29.2306 9.87655C29.3107 9.79937 29.3652 9.69566 29.3796 9.57909L29.3916 9.56944C29.5823 9.58391 29.7729 9.48664 29.869 9.30655L29.9411 9.17149L29.9547 9.24545C29.869 9.3781 29.8522 9.54211 29.9035 9.68762C29.865 9.70933 29.829 9.73666 29.7961 9.76963L29.6399 9.9272C29.5742 9.99312 29.5254 10.0783 29.5054 10.1764L29.4749 10.3195L29.4549 10.3396C29.3155 10.4634 29.2507 10.6604 29.3051 10.8517L29.3604 11.0391C29.245 11.2312 29.2699 11.4853 29.4349 11.6509L29.7769 11.9917C29.9459 12.1622 30.2182 12.1887 30.4185 12.044L30.501 11.9845C30.5611 12.0536 30.6412 12.1075 30.7365 12.1348L30.9439 12.1951C31.1161 12.253 31.314 12.2144 31.4525 12.0786L31.4998 12.0319C31.6023 11.9419 31.6632 11.8133 31.6688 11.6782L31.7041 11.6219C31.7689 11.6557 31.841 11.6758 31.9155 11.6782L31.9171 11.7039C31.9171 11.8486 31.9796 11.9925 32.1005 12.0906C32.3136 12.2643 32.6268 12.2321 32.7998 12.0183L32.9023 11.8961L32.968 11.8824C33.0313 11.9572 33.1186 12.0142 33.2211 12.0408L33.3621 12.0778L33.4758 12.13C33.6104 12.2008 33.7754 12.2088 33.9228 12.1373L34.0894 12.0569C34.1358 12.0384 34.1783 12.0134 34.2167 11.9829C34.2856 11.9974 34.3593 11.9966 34.433 11.9789C34.4835 11.9668 34.5307 11.9467 34.5732 11.921C34.6124 11.9234 34.6525 11.9202 34.6925 11.9121L34.7846 11.8937L34.9552 11.917C35.0049 11.9749 35.0674 12.0207 35.1379 12.0512C35.1579 12.0794 35.1811 12.1051 35.2067 12.1292L35.3926 12.2972C35.4807 12.3776 35.5976 12.4267 35.7266 12.4267H35.8283C35.9028 12.4307 35.9797 12.4178 36.0534 12.3857L36.1111 12.3599L36.2192 12.4709C36.3049 12.5569 36.4138 12.6051 36.526 12.6156C36.5556 12.6735 36.5965 12.7257 36.6493 12.77L36.7903 12.8881C36.8688 12.9589 36.9697 13.0047 37.0834 13.0136C37.2605 13.0272 37.4239 12.9468 37.5224 12.8126C37.6329 12.7756 37.7258 12.7 37.7867 12.6019C37.8532 12.5585 37.9093 12.499 37.9493 12.4275L38.1007 12.577L38.152 12.6815C38.176 12.7386 38.2112 12.7917 38.2569 12.8383L38.4115 12.9951C38.4619 13.073 38.5092 13.151 38.5637 13.2258C38.5637 13.3166 38.5893 13.4083 38.6414 13.4911L38.7551 13.6688C38.8993 13.8963 39.1988 13.9686 39.4303 13.8296L39.5553 13.7548C39.7067 13.6808 39.8148 13.5321 39.8324 13.3568L39.8677 13.3223L39.9189 13.5016C39.8797 13.5635 39.8532 13.6334 39.8436 13.7106L39.7796 13.7644L39.5713 13.9735L39.5216 14.0305L39.4375 14.0314C39.3991 14.004 39.3558 13.9823 39.3094 13.9662L39.2293 13.9389C39.1684 13.9124 39.1011 13.8979 39.0306 13.8979C38.7551 13.8979 38.5316 14.1222 38.5316 14.3988L38.534 14.5515C38.534 14.6456 38.5605 14.7404 38.6157 14.8257L38.7134 14.9744C38.7615 15.0628 38.836 15.1376 38.9329 15.185L39.0258 15.2308L39.1396 15.3096C39.1908 15.3474 39.2493 15.3747 39.3126 15.3908C39.4031 15.4809 39.5272 15.5363 39.665 15.5363H39.8092C39.9365 15.5363 40.0647 15.4873 40.1616 15.39L40.2033 15.2775C40.2465 15.2606 40.2874 15.2381 40.3258 15.2091L40.4075 15.1866C40.4444 15.1762 40.4812 15.1609 40.5165 15.1416L40.6398 15.0725C40.8016 14.9985 40.9169 14.8409 40.9314 14.6552L40.9866 14.6005C41.0043 14.6255 41.0235 14.6496 41.0459 14.6713L41.1925 14.8168C41.2582 14.8884 41.3455 14.9406 41.4464 14.9647L41.5994 15.0001C41.645 15.0138 41.6931 15.021 41.7428 15.021C42.0183 15.021 42.2418 14.7967 42.2418 14.5202L42.241 14.4068C42.241 14.2846 42.1961 14.168 42.1184 14.078C42.1545 13.9831 42.1625 13.877 42.1352 13.7725C42.1745 13.6527 42.1681 13.5192 42.1088 13.3978L42.0391 13.2555C42.0127 13.1952 41.9734 13.139 41.9222 13.0907L41.7884 12.9645C41.7331 12.901 41.6611 12.8512 41.5762 12.8222C41.5025 12.7965 41.5049 12.8102 41.4592 12.7603C41.416 12.7169 41.3663 12.6831 41.3134 12.6582L41.3487 12.5577L41.4312 12.4749C41.4624 12.4428 41.4896 12.4074 41.5113 12.3688C41.5746 12.3969 41.6426 12.4114 41.7115 12.4114L41.7259 12.4251C41.8172 12.5264 41.9494 12.5907 42.096 12.5907C42.3715 12.5907 42.595 12.3664 42.595 12.0898V12.0424C42.6791 12.1075 42.7848 12.1461 42.8994 12.1461L43.1156 12.1453C43.3399 12.1453 43.5434 11.9925 43.5986 11.765L43.6299 11.6364C43.6619 11.5053 43.6411 11.3631 43.5634 11.2433C43.5498 11.0785 43.4553 10.9265 43.3063 10.8453L43.3375 10.7641C43.384 10.7786 43.4336 10.7866 43.4841 10.7866C43.561 10.7866 43.6331 10.7689 43.6988 10.7384L43.7973 10.7376C43.8622 10.7376 43.9286 10.7247 43.9919 10.6974L44.1049 10.6491L44.1585 10.6475C44.2851 10.6475 44.4124 10.5993 44.5093 10.502L44.5734 10.4385C44.7208 10.3043 44.7729 10.0952 44.7104 9.90951C44.732 9.82831 44.7336 9.74229 44.7136 9.66029L44.7569 9.6008C44.8113 9.55578 44.8578 9.49789 44.8906 9.42956L44.9082 9.42071C44.9651 9.40142 45.0196 9.37167 45.0676 9.33147L45.2062 9.30977C45.3015 9.2961 45.3936 9.2543 45.4689 9.18435L45.5482 9.16104C45.6267 9.14174 45.7012 9.10315 45.7637 9.04607C45.9087 9.08868 46.0689 9.06456 46.1954 8.97211H46.213C46.3548 8.98337 46.4894 8.93433 46.5887 8.84348C46.6952 8.84509 46.8034 8.81293 46.8955 8.74379C46.998 8.66661 47.0613 8.55808 47.0845 8.44151C47.1974 8.36191 47.2751 8.23811 47.2936 8.09822C47.3632 8.19309 47.4858 8.27027 47.6957 8.28152C47.7261 8.2976 47.7589 8.31127 47.7942 8.32091C48.0457 8.39166 48.3068 8.25499 48.3949 8.01381L48.4558 8.07732C48.463 8.1955 48.5111 8.31127 48.6008 8.40211L48.6825 8.48251L48.6216 8.6031L48.5567 8.66983L48.4133 8.84187C48.33 8.93111 48.2788 9.0517 48.2788 9.18435L48.274 9.24063L48.2571 9.25832C48.1995 9.3162 48.1554 9.38856 48.1314 9.47136C48.0241 9.53005 47.9383 9.62733 47.8975 9.75274L47.8767 9.81626L47.8246 9.86932C47.7517 9.94247 47.7005 10.0389 47.6844 10.1491L47.6572 10.3324L47.6268 10.4433C47.5963 10.5519 47.6019 10.6709 47.6516 10.781C47.7629 11.0326 48.0577 11.1452 48.3084 11.0334L48.4229 10.982C48.5583 10.9321 48.6624 10.8268 48.7137 10.6966C48.8411 10.6499 48.9356 10.5478 49.0045 10.4393L49.0461 10.4055L49.0998 10.3854C49.2111 10.3436 49.308 10.2616 49.3665 10.1475L49.3697 10.1402C49.453 10.2038 49.5571 10.2407 49.6701 10.2407L49.783 10.2399C49.9176 10.2399 50.0513 10.1861 50.1491 10.0791C50.2276 9.99312 50.2708 9.88781 50.2788 9.78008L50.3757 9.76239L50.3998 9.78651C50.4911 9.89343 50.6272 9.96097 50.7786 9.96097L51.0253 9.95936L51.091 9.95453C51.1703 9.96499 51.2536 9.95614 51.3337 9.92559L51.4819 9.86851C51.5404 9.84841 51.5964 9.81786 51.6461 9.77445L51.7102 9.71898C51.9841 9.71737 52.206 9.49387 52.206 9.21812V9.10396L52.2284 9.09431C52.2925 9.08949 52.3558 9.0718 52.415 9.04205L52.4535 9.0726L52.4911 9.15622C52.4887 9.28806 52.5368 9.41991 52.6369 9.5204L52.7466 9.63054C52.7883 9.67315 52.8372 9.70772 52.8916 9.73345C52.9741 9.8259 53.0911 9.887 53.2216 9.89745L53.3009 9.96338L53.3922 10.0261C53.4555 10.0775 53.5324 10.1137 53.6181 10.1282L53.7719 10.1555C53.8328 10.1676 53.8961 10.1692 53.9577 10.1587C53.9954 10.1724 54.0346 10.1821 54.0755 10.1861C54.3486 10.215 54.5945 10.0164 54.6233 9.74229L54.6378 9.60642C54.6474 9.53729 54.6434 9.46573 54.6217 9.39418L54.6161 9.37489L54.6946 9.36605C54.9117 9.32424 55.0687 9.14657 55.0951 8.93834C55.132 8.94719 55.1704 8.95201 55.2097 8.95201C55.4852 8.95201 55.7087 8.72771 55.7087 8.45115V8.41578L55.8024 8.31931C55.8304 8.29117 55.8561 8.25901 55.8777 8.22283C56.0187 7.98647 55.9418 7.68017 55.7047 7.53707L55.6238 7.45587C55.6158 7.4213 55.6045 7.38753 55.5901 7.35457C55.6494 7.3803 55.7135 7.39477 55.7792 7.39557L55.7984 7.41647C55.9874 7.61585 56.303 7.62389 56.5016 7.43416L56.6106 7.32965C56.7219 7.238 56.7924 7.09891 56.7924 6.94295V6.8521L56.8397 6.873L57.0519 6.86979C57.4508 7.19619 57.6238 6.95259 57.6983 6.67523L57.8072 6.67041C57.9314 6.66719 58.0547 6.61735 58.1493 6.52168L58.1709 6.49997L58.1581 6.49917ZM64.1134 10.059C64.3352 10.2255 64.5555 10.3943 64.7742 10.5655H64.662L64.501 10.7183L64.3977 10.7352L64.2848 10.6218V10.4771L64.1526 10.3444L64.1134 10.0599V10.059ZM40.8777 7.16645L40.6903 7.238L40.5477 7.31518L40.4275 7.43577H40.2457L40.1152 7.47195L40.0431 7.39959H39.8901L39.8252 7.30553L39.6826 7.29508L39.5625 7.41406H39.3807L39.2573 7.37065L39.0827 7.45185H38.9802L38.8208 7.63434L38.6598 7.57565V7.68419H38.5516L38.4643 7.59656L38.4131 7.67856L38.4932 7.77343L38.4195 7.84578L38.4275 7.9921L38.3706 7.93341L38.2176 7.94145L38.3122 8.03632L38.1375 8.04436V8.13199H38.0126L37.9197 8.22685L37.548 8.32815V8.38684L37.705 8.44151L37.7659 8.50421L37.5841 8.54039L37.5656 8.61757L37.4815 8.69957L37.4014 8.62079H37.2348V8.73093L37.1972 8.83946L37.0666 8.78801L36.9513 8.86277L37.0386 8.95764L36.908 9.09672L36.7398 9.14657L36.719 9.24143L36.6677 9.22053L36.6245 9.16908L36.4859 9.15461L36.3698 9.3162L36.3393 9.47619L36.4266 9.6016L36.5364 9.60803L36.5876 9.74068L36.6389 9.75435L36.6317 9.92961L36.711 9.99554L36.6677 10.0679L36.5516 10.1057L36.5083 10.2367L36.6245 10.3605L36.7783 10.5068L36.8295 10.4763L36.9168 10.6089H36.9961L37.1123 10.6741V10.7689L37.2372 10.7102L37.2805 10.6668L37.2428 10.5358L37.1635 10.412L37.222 10.2214L37.1555 10.0309L37.2068 9.89987V9.71737L37.3093 9.61446L37.3526 9.46815L37.4759 9.4183V9.27922L37.6009 9.17631H37.7523L37.8468 9.01472L37.9205 8.91985H38.0134L38.1656 8.76871L38.2289 8.83062V8.65294L38.2905 8.71485H38.3778L38.357 8.56853L38.4443 8.49055V8.61355L38.6854 8.43909V8.30805L38.816 8.34423L38.8312 8.26464H38.9545L39.0931 8.27991L39.2093 8.23489L39.158 8.11832L39.3262 8.02345H39.5513L39.6594 7.90688H39.951L40.1768 7.91492L40.2714 7.82005L40.4684 7.89241L40.6863 7.7895L40.8681 7.77584L41.158 7.5041V7.32884L41.0571 7.16886L40.8809 7.16805L40.8777 7.16645ZM49.3144 8.96327L49.2351 8.97854L49.1014 9.11441V9.20526H49.2143L49.2504 9.29289L49.3449 9.24947L49.453 9.14094V8.96407H49.3144V8.96327ZM43.9286 9.57025L43.8413 9.61366L43.8774 9.70853C43.879 9.69406 43.9431 9.67958 43.9431 9.67958L43.9278 9.56944L43.9286 9.57025ZM40.7712 9.86288L40.6919 9.89183L40.6614 9.88379L40.5821 9.94248L40.611 10.0092L40.5541 10.0888L40.5677 10.1402L40.6999 10.1764L40.8232 10.1177L40.8953 10.1258V10.0534L40.7792 10.0229L40.836 9.95775L40.7712 9.86288ZM43.2742 9.87012L43.259 9.95051H43.3824L43.448 10.0156L43.4561 9.9071L43.2742 9.87092V9.87012ZM41.7748 10.0663L41.7091 10.125L41.7524 10.1909L41.8397 10.1322L41.9494 10.1611L41.9206 10.096L41.7748 10.0655V10.0663ZM41.4392 10.3589L41.4031 10.4538L41.4616 10.5052L41.5265 10.4232L41.4392 10.3581V10.3589ZM34.9256 10.4023L34.7662 10.4457L34.5988 10.6644L34.6485 10.8035L34.8735 10.8911L34.9761 10.8188L35.0994 10.8397L35.1651 10.6869L35.0626 10.5559L35.0546 10.4457L34.924 10.4023H34.9256ZM30.2102 10.5052L30.1814 10.5487L30.2327 10.6138L30.2975 10.5487L30.2102 10.5052ZM42.4716 10.6065L42.4068 10.629L42.3555 10.6942L42.3843 10.7818L42.4356 10.8469L42.5093 10.7673L42.5381 10.6733L42.4716 10.6073V10.6065ZM42.1232 10.8558L42.0359 10.8783L41.9566 10.9587L41.8693 11.031L41.9486 11.0881L42.0151 11.031H42.1152L42.2097 10.9434L42.1224 10.8558H42.1232ZM37.5024 11.0383L37.3854 11.0969L37.2981 11.1259L37.3342 11.4185L37.4151 11.4394L37.4439 11.5938L37.5977 11.6091L37.6489 11.4836L37.5753 11.3598L37.5833 11.2208L37.5032 11.0383H37.5024ZM64.6676 17.4827L64.7806 17.5969V17.7006L64.948 17.9313L65.0729 17.945L65.5455 18.1532L65.6416 18.3132L65.7946 18.523L66.1767 18.9065L66.4338 19.261L66.5508 19.5119L66.6893 19.5545L66.8351 19.6373L66.9737 19.7707L67.085 19.9862L67.1755 20.1036L67.4463 20.3753V20.5079L67.6553 20.7025L67.7723 20.8207L67.8628 20.9324L67.9741 20.8416L67.8916 20.6607L67.7803 20.5506L67.7458 20.4099L67.8019 20.2676H67.9781L68.0574 20.188L68.1551 20.233L68.2801 20.278L68.2905 20.2732C68.3073 20.2571 68.2801 20.1936 68.2801 20.1936L68.1824 20.0682L68.0198 19.9749L67.9268 20.0682L67.7731 20.061L67.7114 19.9299H67.5928L67.4895 19.8262H67.3093L67.1923 19.749L66.9625 19.5199L66.952 19.4194C66.9488 19.3816 66.9472 19.3438 66.9504 19.3213L66.9577 19.2908L66.9368 19.2498C66.9096 19.208 66.8663 19.1581 66.8663 19.1581L66.7478 18.9772V18.8928L66.7766 18.7891L66.7478 18.6428H66.8511L66.9833 18.6018L67.0522 18.531L67.081 18.4402L66.8856 18.3662L66.7758 18.2754L66.6012 18.1701L66.3994 18.0664L66.3569 17.9948L66.0125 17.8027L65.8395 17.6483L65.6593 17.5792L65.5271 17.5446L65.2139 17.2246L65.145 17.0357L65.0625 16.9183H64.9592L64.7638 16.7929L64.7237 16.6812L64.5491 16.6466L64.453 16.5485L64.4033 16.4368L64.3128 16.3966L64.1342 16.3467V16.4504L64.175 16.5678L64.2311 16.5541L64.3649 16.6008L64.4562 16.6932V16.7455L64.5499 16.8395L64.5227 16.9786L64.3633 16.9304V17.0341L64.3136 17.1748L64.5091 17.2367L64.6052 17.4176L64.6709 17.4843L64.6676 17.4827ZM62.4313 17.2439L62.2983 17.2713L62.2295 17.3484L62.2279 17.551L62.3472 17.502L62.4089 17.5647L62.4802 17.4956L62.509 17.3565L62.4321 17.2447L62.4313 17.2439ZM45.4161 4.39283L45.3984 4.51181L45.2903 4.56005L45.1277 4.66858V4.81972L45.1934 4.88645L45.1061 4.97408L45.0492 5.08583L45.1277 5.19436L45.1581 5.3029L45.2967 5.42349L45.4233 5.3029H45.5074L45.6339 5.23054L45.7845 5.1823L45.7421 5.03759V4.8567L45.8326 4.77953L45.6043 4.5504L45.5506 4.42981L45.4185 4.39363L45.4161 4.39283ZM44.9651 4.46357L44.8386 4.4692L44.7841 4.52548L44.8714 4.61311L44.9651 4.52548V4.46357ZM45.8838 5.24501L45.7244 5.29646L45.6075 5.32541L45.4769 5.36882L45.4257 5.47896L45.3968 5.57383L45.332 5.65342L45.3528 5.74828L45.2294 5.84315L45.2879 5.8946L45.3752 5.86405L45.4473 5.96696L45.4545 6.06182L45.5194 6.14222L45.6876 6.15749L45.7084 6.25236L45.8254 6.17839L45.8822 6.27326L46.0432 6.33034L46.1962 6.25798L46.2683 6.15508L46.2098 6.0377L46.1153 5.90666L46.189 5.85681L46.2178 5.73301L46.1818 5.59392L46.197 5.45484L46.0208 5.35998L45.9559 5.44198L45.8974 5.55051L45.8462 5.52961L45.8822 5.39053V5.24421L45.8838 5.24501ZM44.9587 5.38249L44.9763 5.51514V5.59955L45.1093 5.63573L45.1629 5.6904L45.2446 5.6084L45.2895 5.49102L45.2118 5.43072L45.0612 5.39455L44.9587 5.38249ZM46.6336 5.75632L46.5615 5.76275L46.4589 5.88656L46.4669 5.99509L46.4237 6.06906L46.4525 6.26683L46.3652 6.35446L46.3724 6.55062L46.2915 6.88748L46.3572 6.92365L46.4958 6.81512L46.5751 6.76367L46.7569 6.6688L46.9027 6.65513L47.0845 6.51605L47.1718 6.34722L47.1133 6.20251L47.0485 6.09237L46.9612 6.13016L46.8738 5.9758L46.8074 5.90907L46.7281 6.00394L46.6768 6.14302L46.6848 5.85762L46.6336 5.75552V5.75632ZM47.3897 6.50078L47.3176 6.54419L47.4201 6.59564L47.4922 6.6471L47.5723 6.62619L47.5515 6.53133L47.4722 6.55223L47.3905 6.50078H47.3897ZM47.7029 7.15117L47.674 7.19458L47.7397 7.238L47.7685 7.18654L47.7021 7.15037L47.7029 7.15117ZM39.9534 12.7354L39.9974 12.5842L40.0487 12.2659C40.0607 12.1879 40.0911 12.1163 40.1344 12.0552L40.2305 11.9113L40.2513 11.7851C40.1752 11.6814 40.1448 11.5536 40.16 11.4298C40.1096 11.478 40.0519 11.5142 39.991 11.5375L39.9397 11.5624V11.6364C39.9397 11.7538 39.8997 11.8615 39.8324 11.9467L39.8284 11.966V12.0552C39.8284 12.134 39.81 12.2088 39.7779 12.2755C39.8204 12.3648 39.8356 12.4645 39.8212 12.5625V12.5746C39.8773 12.6188 39.9221 12.6743 39.9542 12.737L39.9534 12.7354ZM30.8038 8.3989C30.839 8.4198 30.8702 8.44472 30.8983 8.47366C30.9359 8.50502 30.9776 8.55406 31.0128 8.58943C31.1546 8.73414 31.1906 8.94397 31.1217 9.12164L31.1722 9.38132L31.2315 9.48262C31.2515 9.51719 31.2675 9.55336 31.2787 9.59035L31.3524 9.78008L31.4381 9.8661C31.5326 9.96097 31.5815 10.0856 31.5839 10.2102L31.6808 10.2649L31.7273 10.2817L31.8378 10.26C31.8763 10.2528 31.9147 10.2496 31.9516 10.2512L31.9748 10.2279L32.0277 10.1354L32.0421 10.0164C31.9548 9.91836 31.9131 9.79455 31.9163 9.67155L31.9139 9.54774L31.9027 9.52201C31.8578 9.41589 31.8522 9.30253 31.8795 9.19882L31.9027 9.08547V8.95603L31.8963 8.93272L31.8522 8.8885C31.7753 8.81132 31.7289 8.71404 31.7129 8.61355C31.6544 8.54522 31.6159 8.46241 31.5999 8.37558C31.4413 8.28393 31.3516 8.11591 31.3508 7.94225L31.35 7.85141L31.3316 7.78468L31.2779 7.74529C31.2307 7.73805 31.185 7.72438 31.1434 7.70509L31.0232 7.76539V7.89482C31.0232 8.00255 30.9896 8.10144 30.9319 8.18344L30.8054 8.4005L30.8038 8.3989ZM39.1692 70.7571C22.8116 68.4152 10.2354 54.3003 10.2354 37.2341C10.2354 33.0672 10.9867 29.0772 12.3588 25.3903C17.8967 43.0297 26.2486 58.4342 39.17 70.7571H39.1692Z" fill="white"/>
<g id="Group">
<path id="Vector_2" d="M43.3532 37.675C43.3532 38.7812 42.8542 39.8657 40.859 39.8657H39.4244V35.4633H40.9215C42.6676 35.4633 43.3532 36.486 43.3532 37.675ZM36.452 47.2934H39.4244V42.2647H40.8798C44.6004 42.2647 46.3465 40.4912 46.3465 37.6332C46.3465 34.5034 44.018 33.0635 40.9831 33.0635H36.4512V47.2934H36.452ZM59.3801 33.0635H56.2618L54.0584 38.5095C53.8925 38.9058 53.6843 39.4276 53.5177 39.9703H53.476C53.3094 39.5112 53.0812 39.0103 52.8312 38.5304L50.0046 33.0635H46.7822L52.104 42.8283L51.7299 43.6628C51.2101 44.7063 50.7735 44.9145 50.0462 44.9145C49.7963 44.9145 49.2565 44.8309 49.0899 44.7682V47.2299C49.3806 47.3344 49.9421 47.4389 50.4411 47.4389C52.104 47.4389 53.3719 46.479 54.3908 44.2465L59.3793 33.0627L59.3801 33.0635ZM66.7595 32.6045C62.4983 32.6045 59.4009 35.797 59.4009 40.1367C59.4009 44.4764 62.3109 47.7517 66.697 47.7517C70.5842 47.7517 72.871 45.3937 73.7649 42.5148H70.46C70.0235 43.8919 68.8597 45.2064 66.7803 45.2064C64.182 45.2064 62.4358 42.8902 62.4358 40.1568C62.4358 37.1942 64.2236 35.1498 66.7387 35.1498C68.6514 35.1498 69.9402 36.3179 70.3143 37.6115H73.515C73.016 35.2334 70.7084 32.6045 66.7595 32.6045Z" fill="#242424"/>
<path id="Vector_3" d="M83.3486 47.2936H86.3419V35.6516H89.73V33.0645H79.9805V35.6516H83.3478V47.2936H83.3486ZM98.2116 37.6752C98.2116 38.7814 97.7126 39.8659 95.7174 39.8659H94.2828V35.4635H95.7798C97.526 35.4635 98.2116 36.4861 98.2116 37.6752ZM91.3104 47.2936H94.2828V42.2649H95.7382C99.4587 42.2649 101.205 40.4914 101.205 37.6334C101.205 34.5036 98.8764 33.0637 95.8415 33.0637H91.3096V47.2936H91.3104ZM100.685 47.2936H103.678L104.8 44.0593H110.039L111.14 47.2936H114.196L108.978 33.0637H106.193L100.685 47.2936ZM106.692 38.5515C106.962 37.8215 107.191 37.0915 107.379 36.3607H107.482C107.67 37.0698 107.877 37.7379 108.148 38.5306L109.312 41.9313H105.508L106.692 38.5515ZM124.133 47.2936H127.105V33.0637H124.133V38.6552H118.458V33.0637H115.486V47.2936H118.458V41.2431H124.133V47.2936ZM136.584 32.6055C132.323 32.6055 129.226 35.7979 129.226 40.1377C129.226 44.4774 132.136 47.7526 136.522 47.7526C140.409 47.7526 142.696 45.3947 143.59 42.5157H140.285C139.848 43.8929 138.684 45.2073 136.605 45.2073C134.007 45.2073 132.261 42.8912 132.261 40.1577C132.261 37.1952 134.048 35.1508 136.563 35.1508C138.476 35.1508 139.765 36.3189 140.139 37.6125H143.34C142.841 35.2344 140.533 32.6055 136.584 32.6055ZM151.426 43.6011C149.639 43.6011 148.059 42.2657 148.059 40.1167C148.059 38.0096 149.431 36.6324 151.426 36.6324V43.6011ZM154.399 36.6324C156.374 36.6324 157.745 38.0096 157.745 40.1167C157.745 42.2657 156.187 43.6011 154.399 43.6011V36.6324ZM154.399 47.5026V45.9582C158.265 45.8328 160.78 43.4756 160.78 40.0958C160.78 36.6533 158.244 34.4417 154.399 34.2954V32.8764H151.426V34.2954C147.623 34.3999 145.045 36.6742 145.045 40.0958C145.045 43.4756 147.539 45.8336 151.426 45.9582V47.5026H154.399ZM171.257 33.0645H162.796V47.2944H171.485V44.7073H165.769V41.1812H171.07V38.7195H165.769V35.6524H171.257V33.0653V33.0645ZM181.006 37.676C181.006 38.7822 180.507 39.8667 178.512 39.8667H177.077V35.4643H178.574C180.32 35.4643 181.006 36.4869 181.006 37.676ZM174.105 47.2944H177.077V42.2657H178.532C182.253 42.2657 183.999 40.4922 183.999 37.6342C183.999 34.5044 181.671 33.0645 178.636 33.0645H174.104V47.2944H174.105Z" fill="white"/>
</g>
<path id="Vector_4" fill-rule="evenodd" clip-rule="evenodd" d="M15.233 13.4951L9.34415 12.4322L7.81988 9.87167L8.17231 12.7956L4 17.1506L4.66722 0L15.233 13.4951Z" fill="white"/>
<path id="Vector_5" d="M85.3961 56.515C86.7994 56.515 87.2415 56.2923 87.2415 55.285C87.2415 54.5437 86.9908 54.3283 86.5919 54.1289C86.9908 53.9215 87.1975 53.706 87.1975 52.9656C87.1975 51.9574 86.7689 51.7573 85.3664 51.7573H83.3359V56.515H85.3961ZM83.8678 56.0921V54.3355H85.4994C86.3636 54.3436 86.7033 54.321 86.7033 55.2842C86.7033 56.0994 86.3412 56.0921 85.4113 56.0921H83.8678ZM83.8678 53.9134V52.1793H85.3816C86.3124 52.1793 86.6592 52.2461 86.6592 52.9873C86.6592 53.8765 86.3636 53.9062 85.5002 53.9134H83.8686H83.8678ZM96.0739 56.515V51.7573H92.8099L92.6626 55.0551C92.6105 56.1372 92.3229 56.1741 91.695 56.1741L91.6509 56.5665C92.7587 56.5665 93.1279 56.3293 93.1864 55.0253L93.3338 52.1938H95.5493V56.515H96.0739ZM97.7648 56.515V54.2029H98.9687C98.9911 56.2706 100.047 56.597 101.346 56.597C102.66 56.597 103.723 56.2634 103.723 54.1289C103.723 51.9944 102.66 51.6608 101.346 51.6608C100.105 51.6608 99.0936 51.9574 98.9759 53.7655H97.7648V51.7573H97.241V56.515H97.7648ZM101.346 56.1814C100.378 56.1814 99.515 56.1741 99.515 54.1289C99.515 52.0829 100.379 52.0756 101.346 52.0756C102.284 52.0756 103.177 52.0829 103.177 54.1289C103.177 56.1741 102.298 56.1814 101.346 56.1814ZM106.685 56.515C108.088 56.515 108.531 56.2923 108.531 54.9883C108.531 53.6843 108.088 53.4689 106.685 53.4689H105.304V52.1793H108.227L108.301 51.7573H104.771V56.515H106.684H106.685ZM107.977 55.01C107.977 56.0479 107.63 56.0921 106.699 56.0921H105.304V53.8909H106.699C107.63 53.8909 107.977 53.9279 107.977 54.9658V55.01ZM111.603 52.0748C112.541 52.0748 113.434 52.0821 113.434 54.1281C113.434 56.1733 112.555 56.1806 111.603 56.1806C110.635 56.1806 109.772 56.1733 109.772 54.1281C109.772 52.0821 110.636 52.0748 111.603 52.0748ZM109.225 54.1281C109.225 56.2626 110.288 56.5962 111.603 56.5962C112.917 56.5962 113.98 56.2626 113.98 54.1281C113.98 51.9936 112.917 51.66 111.603 51.66C110.288 51.66 109.225 51.9936 109.225 54.1281ZM120.124 56.5142V51.7565H119.326L117.865 55.1805L117.555 56.0769L117.245 55.1805L115.783 51.7565H114.985V56.5142H115.487V52.349H115.51L117.267 56.5142H117.843L119.6 52.349H119.623V56.5142H120.125H120.124ZM125.514 56.5142V52.1785H127.922L127.995 51.7565H124.99V56.5142H125.514ZM130.794 52.0748C131.732 52.0748 132.625 52.0821 132.625 54.1281C132.625 56.1733 131.746 56.1806 130.794 56.1806C129.827 56.1806 128.963 56.1733 128.963 54.1281C128.963 52.0821 129.827 52.0748 130.794 52.0748ZM128.417 54.1281C128.417 56.2626 129.48 56.5962 130.794 56.5962C132.109 56.5962 133.171 56.2626 133.171 54.1281C133.171 51.9936 132.109 51.66 130.794 51.66C129.48 51.66 128.417 51.9936 128.417 54.1281ZM134.708 56.5142V54.8018H136.089C137.493 54.8018 137.936 54.5872 137.936 53.2823C137.936 51.9775 137.493 51.7557 136.089 51.7557H134.177V56.5134H134.708V56.5142ZM137.381 53.3049C137.381 54.3428 137.035 54.3797 136.104 54.3797H134.708V52.1785H136.104C137.035 52.1785 137.381 52.2235 137.381 53.2606V53.3057V53.3049ZM140.786 52.074C141.723 52.074 142.617 52.0813 142.617 54.1273C142.617 56.1725 141.738 56.1798 140.786 56.1798C139.818 56.1798 138.954 56.1725 138.954 54.1273C138.954 52.0813 139.819 52.074 140.786 52.074ZM138.408 54.1273C138.408 56.2618 139.471 56.5954 140.786 56.5954C142.1 56.5954 143.163 56.2618 143.163 54.1273C143.163 51.9928 142.1 51.6592 140.786 51.6592C139.471 51.6592 138.408 51.9928 138.408 54.1273ZM148.348 57.3584V56.0761H147.919V51.7557H144.655L144.522 54.9055C144.485 55.6395 144.345 55.9876 144.064 56.0769H143.901V57.3149L144.322 57.241V56.515H147.918V57.4339L148.347 57.36L148.348 57.3584ZM147.395 56.0761H144.73C144.921 55.8461 145.017 55.4755 145.047 54.8758L145.18 52.193H147.395V56.0769V56.0761ZM152.867 56.5134L152.94 56.0833H149.928V54.2599H152.313V53.8371H149.928V52.1769H152.867L152.94 51.7548H149.396V56.5126H152.867V56.5134ZM162.532 56.5134V51.7557H161.734L160.273 55.1797L159.963 56.0761L159.653 55.1797L158.191 51.7557H157.393V56.5134H157.895V52.3482H157.918L159.675 56.5134H160.251L162.008 52.3482H162.031V56.5134H162.533H162.532ZM167.59 56.5134V51.7557H167L164.201 55.773V51.7557H163.706V56.5134H164.29L167.088 52.4816V56.5134H167.59ZM169.296 56.5134V54.801H170.677C172.081 54.801 172.524 54.5864 172.524 53.2815C172.524 51.9767 172.081 51.7548 170.677 51.7548H168.765V56.5126H169.296V56.5134ZM171.969 53.3041C171.969 54.342 171.623 54.3789 170.692 54.3789H169.296V52.1777H170.692C171.623 52.1777 171.969 52.2227 171.969 53.2598V53.3049V53.3041ZM176.931 56.5134L175.033 51.7557H174.398L172.5 56.5134H173.047L173.637 55.0237H175.786L176.384 56.5134H176.931H176.931ZM175.639 54.6458H173.793L174.413 53.0966L174.694 52.1994H174.738L175.019 53.0966L175.639 54.6458Z" fill="white"/>
</g>
</g>
</g>
<defs>
<filter id="filter0_d" x="0" y="0" width="188" height="80.7586" filterUnits="userSpaceOnUse" color-interpolation-filters="sRGB">
<feFlood flood-opacity="0" result="BackgroundImageFix"/>
<feColorMatrix in="SourceAlpha" type="matrix" values="0 0 0 0 0 0 0 0 0 0 0 0 0 0 0 0 0 0 127 0"/>
<feOffset dy="6"/>
<feGaussianBlur stdDeviation="2"/>
<feColorMatrix type="matrix" values="0 0 0 0 0 0 0 0 0 0 0 0 0 0 0 0 0 0 0.25 0"/>
<feBlend mode="normal" in2="BackgroundImageFix" result="effect1_dropShadow"/>
<feBlend mode="normal" in="SourceGraphic" in2="effect1_dropShadow" result="shape"/>
</filter>
<clipPath id="clip0">
<rect width="180" height="70.7586" fill="white" transform="translate(4)"/>
</clipPath>
</defs>
</svg>
