<svg width="44" height="34" viewBox="0 0 44 34" fill="none" xmlns="http://www.w3.org/2000/svg">
<g id="Mastercard-logo" clip-path="url(#clip0)">
<g id="layer1">
<g id="g13">
<g id="XMLID_328_">
<path id="rect19" d="M27.742 3.71924H16.2056V24.2962H27.742V3.71924Z" fill="#72777C"/>
<path id="XMLID_330_" d="M16.9377 14.0077C16.9377 9.82689 18.9154 6.11869 21.9552 3.71926C19.7211 1.97422 16.9011 0.919922 13.8247 0.919922C6.53656 0.919922 0.640137 6.77307 0.640137 14.0077C0.640137 21.2423 6.53656 27.0955 13.8247 27.0955C16.9011 27.0955 19.7211 26.0412 21.9552 24.2962C18.9154 21.9331 16.9377 18.1885 16.9377 14.0077Z" fill="#4F5051"/>
<path id="path22" d="M43.3067 14.0077C43.3067 21.2423 37.4103 27.0955 30.1222 27.0955C27.0458 27.0955 24.2257 26.0412 21.9917 24.2962C25.0681 21.8967 27.0092 18.1885 27.0092 14.0077C27.0092 9.82689 25.0315 6.11869 21.9917 3.71926C24.2257 1.97422 27.0458 0.919922 30.1222 0.919922C37.4103 0.919922 43.3067 6.80943 43.3067 14.0077Z" fill="#7D838A"/>
</g>
</g>
</g>
</g>
<defs>
<clipPath id="clip0">
<rect width="42.6667" height="32.8649" fill="white" transform="translate(0.640137 0.919922)"/>
</clipPath>
</defs>
</svg>
