<svg width="83" height="37" viewBox="0 0 83 37" fill="none" xmlns="http://www.w3.org/2000/svg">
<g id="logo-mir">
<g id="&#208;&#161;&#208;&#187;&#208;&#190;&#208;&#185; x0020 1">
<path id="Vector" d="M44.9468 11.5066L40.9107 20.2023H40.5003V9.61377H34.7656V27.5331H39.6333C40.9107 27.5331 42.0716 26.7947 42.6077 25.6403L46.645 16.9446H47.0544V27.5331H52.7889V9.61377H47.9225C46.6438 9.61377 45.4828 10.3523 44.9468 11.5066Z" fill="#7D838A"/>
<path id="Vector_2" d="M23.4333 11.9688L21.0446 20.2031H20.6354L18.2466 11.9688C17.8413 10.5739 16.5573 9.61328 15.0983 9.61328H9.37158V27.5339H15.1048V16.944H15.5153L18.7918 27.5339H22.888L26.1646 16.944H26.5738V27.5339H32.3083V9.61328H26.5816C25.1225 9.61328 23.8387 10.5739 23.4333 11.9688H23.4333Z" fill="#7D838A"/>
<path id="Vector_3" d="M55.2466 17.7593V27.534H60.9693V21.8322H67.1248C69.7985 21.8322 72.067 20.1304 72.9116 17.7593H55.2466Z" fill="#7D838A"/>
<path id="Vector_4" d="M67.1248 9.61377H54.4268C55.1982 13.7842 58.8683 16.9446 63.2848 16.9446H73.1457C73.2254 16.5494 73.2686 16.1412 73.2686 15.7226C73.2686 12.349 70.5177 9.61377 67.1249 9.61377H67.1248Z" fill="#4F5051"/>
</g>
</g>
</svg>
