<svg width="10" height="11" viewBox="0 0 10 11" fill="none" xmlns="http://www.w3.org/2000/svg">
<path id="Vector" d="M2 4.92708C2.77778 6.48264 4.11111 7.76042 5.66667 8.59375L6.88889 7.37153C7.05553 7.20488 7.27778 7.14933 7.44444 7.26042C8.05556 7.48264 8.7222 7.59375 9.44444 7.59375C9.77778 7.59375 10 7.81597 10 8.14931V10.0382C10 10.3715 9.77778 10.5938 9.44444 10.5938C4.22222 10.5938 0 6.37153 0 1.14931C0 0.815972 0.222222 0.59375 0.555556 0.59375H2.5C2.83333 0.59375 3.05556 0.815972 3.05556 1.14931C3.05556 1.81597 3.16667 2.48264 3.38889 3.14931C3.44444 3.31597 3.38889 3.53819 3.27778 3.70486L2 4.92708Z" fill="#C8AE5A"/>
</svg>
