<svg width="15" height="15" viewBox="0 0 15 15" fill="none" xmlns="http://www.w3.org/2000/svg">
<g id="telegram">
<path id="Vector" d="M7.49991 14.9998C11.642 14.9998 14.9998 11.642 14.9998 7.49991C14.9998 3.35783 11.642 0 7.49991 0C3.35782 0 0 3.35783 0 7.49991C0 11.642 3.35782 14.9998 7.49991 14.9998Z" fill="#41B4E6"/>
<path id="Vector_2" d="M6.77149 8.59249L10.1609 11.1515L11.8718 3.84814L3.12793 7.28757L5.78858 8.16885L10.6443 4.91174L6.77149 8.59249Z" fill="white"/>
<path id="Vector_3" d="M5.78857 8.16922L6.51728 10.7914L6.77149 8.59285L10.6443 4.91211L5.78857 8.16922Z" fill="#D2D2D7"/>
<path id="Vector_4" d="M7.87335 9.42445L6.51758 10.7913L6.77179 8.59277L7.87335 9.42445Z" fill="#B9B9BE"/>
</g>
</svg>
