<svg width="31" height="30" viewBox="0 0 31 30" fill="none" xmlns="http://www.w3.org/2000/svg">
<g id="twitter-logo-button" clip-path="url(#clip0)">
<g id="Group">
<g id="Group_2">
<path id="Vector" d="M15.6001 0C7.32913 0 0.600098 6.72903 0.600098 15C0.600098 23.2704 7.32913 30 15.6001 30C23.8705 30 30.6001 23.2704 30.6001 15C30.6001 6.72903 23.8717 0 15.6001 0ZM22.2917 11.5669C22.2983 11.7155 22.3019 11.8654 22.3019 12.0152C22.3019 16.5776 18.8302 21.8366 12.4782 21.8366C10.5284 21.8366 8.71337 21.2668 7.18593 20.2868C7.45601 20.3188 7.73093 20.3351 8.00947 20.3351C9.62753 20.3351 11.1157 19.7829 12.2975 18.8572C10.787 18.8295 9.51152 17.8313 9.07226 16.4592C9.28253 16.499 9.49944 16.5214 9.72118 16.5214C10.036 16.5214 10.3417 16.4803 10.6311 16.4012C9.05172 16.0845 7.86204 14.6894 7.86204 13.0158C7.86204 13.0013 7.86204 12.9862 7.86265 12.9723C8.32788 13.2303 8.86019 13.3862 9.42572 13.4037C8.50008 12.7856 7.89044 11.7282 7.89044 10.5307C7.89044 9.89749 8.06022 9.30416 8.35749 8.79421C10.0595 10.8835 12.6044 12.2575 15.4732 12.4025C15.414 12.1494 15.3844 11.8865 15.3844 11.6152C15.3844 9.70897 16.93 8.16281 18.8362 8.16281C19.8295 8.16281 20.7256 8.58213 21.3564 9.2528C22.1436 9.09812 22.8808 8.81173 23.5496 8.41477C23.2898 9.22138 22.7442 9.89749 22.0294 10.3253C22.7285 10.2419 23.3956 10.057 24.0124 9.78208C23.552 10.4733 22.9666 11.0817 22.2917 11.5669Z" fill="#7D838A"/>
</g>
</g>
</g>
<defs>
<clipPath id="clip0">
<rect width="30" height="30" fill="white" transform="translate(0.600098)"/>
</clipPath>
</defs>
</svg>
