<svg width="64" height="64" viewBox="0 0 64 64" fill="none" xmlns="http://www.w3.org/2000/svg">
<g id="visa-pay-logo" clip-path="url(#clip0)">
<g id="Group">
<g id="Group_2">
<path id="Vector" d="M25.6261 22.4766L22.3735 41.5639H27.5755L30.8308 22.4766H25.6261Z" fill="#7D838A"/>
</g>
</g>
<g id="Group_3">
<g id="Group_4">
<path id="Vector_2" d="M18.0119 22.4977L12.9169 35.5147L12.3737 33.5492C11.3689 31.181 8.5164 27.7799 5.16748 25.6365L9.82626 41.5542L15.3306 41.5449L23.523 22.4937L18.0119 22.4977Z" fill="#7D838A"/>
</g>
</g>
<g id="Group_5">
<g id="Group_6">
<path id="Vector_3" d="M10.3986 23.8637C10.0962 22.701 9.21989 22.3545 8.13212 22.313H0.066898L0 22.693C6.27637 24.2156 10.4294 27.8843 12.1527 32.2955L10.3986 23.8637Z" fill="#4F5051"/>
</g>
</g>
<g id="Group_7">
<g id="Group_8">
<path id="Vector_4" d="M41.3737 26.1356C43.0756 26.1088 44.3092 26.4808 45.2672 26.8661L45.7368 27.0868L46.4406 22.9499C45.4103 22.5632 43.7954 22.1484 41.7804 22.1484C36.64 22.1484 33.0168 24.7374 32.9887 28.4476C32.9552 31.189 35.5696 32.7197 37.5445 33.6335C39.5715 34.5701 40.2511 35.1655 40.2418 36.0017C40.2257 37.2794 38.6255 37.8655 37.131 37.8655C35.0478 37.8655 33.9413 37.5778 32.2327 36.866L31.5624 36.5609L30.8306 40.8331C32.0481 41.3669 34.2945 41.8258 36.6266 41.8499C42.0949 41.8499 45.6485 39.2917 45.6859 35.3273C45.7087 33.1585 44.3212 31.5035 41.3148 30.1454C39.4952 29.2597 38.382 28.671 38.3927 27.7772C38.3927 26.9838 39.3373 26.1356 41.3737 26.1356Z" fill="#7D838A"/>
</g>
</g>
<g id="Group_9">
<g id="Group_10">
<path id="Vector_5" d="M59.791 22.4976H55.7717C54.5234 22.4976 53.5949 22.8374 53.0463 24.0817L45.3223 41.5742H50.7852C50.7852 41.5742 51.6762 39.2221 51.8783 38.707C52.4763 38.707 57.784 38.715 58.54 38.715C58.6952 39.3813 59.1742 41.5742 59.1742 41.5742H64.0002L59.791 22.4976ZM53.3755 34.8001C53.8036 33.7043 55.448 29.4657 55.448 29.4657C55.4199 29.5178 55.8721 28.3618 56.141 27.6434L56.4916 29.289C56.4916 29.289 57.4883 33.8461 57.6971 34.8001H53.3755Z" fill="#7D838A"/>
</g>
</g>
</g>
<defs>
<clipPath id="clip0">
<rect width="64" height="64" fill="white"/>
</clipPath>
</defs>
</svg>
