<svg width="15" height="15" viewBox="0 0 15 15" fill="none" xmlns="http://www.w3.org/2000/svg">
<g id="whatsapp">
<path id="Vector" d="M7.50187 0H7.49813C3.36281 0 0 3.36375 0 7.5C0 9.14062 0.52875 10.6613 1.42781 11.8959L0.493125 14.6822L3.37594 13.7606C4.56187 14.5463 5.97656 15 7.50187 15C11.6372 15 15 11.6353 15 7.5C15 3.36469 11.6372 0 7.50187 0Z" fill="#4CAF50"/>
<path id="Vector_2" d="M11.866 10.5908C11.6851 11.1017 10.967 11.5255 10.3941 11.6492C10.0023 11.7327 9.49039 11.7992 7.76727 11.0849C5.5632 10.1717 4.14383 7.93205 4.0332 7.78674C3.92727 7.64143 3.14258 6.6008 3.14258 5.52455C3.14258 4.4483 3.68914 3.92424 3.90945 3.69924C4.09039 3.51455 4.38945 3.43018 4.67633 3.43018C4.76914 3.43018 4.85258 3.43486 4.92758 3.43861C5.14789 3.44799 5.25852 3.46111 5.40383 3.80893C5.58477 4.24486 6.02539 5.32111 6.07789 5.43174C6.13133 5.54236 6.18477 5.69236 6.10977 5.83768C6.03945 5.98768 5.97758 6.05424 5.86695 6.18174C5.75633 6.30924 5.65133 6.40674 5.5407 6.54361C5.43945 6.66268 5.32508 6.79018 5.45258 7.01049C5.58008 7.22611 6.0207 7.94518 6.66945 8.52268C7.50664 9.26799 8.18539 9.50611 8.4282 9.60736C8.60914 9.68236 8.82477 9.66455 8.95695 9.52393C9.12477 9.34299 9.33195 9.04299 9.54289 8.74768C9.69289 8.5358 9.88227 8.50955 10.081 8.58455C10.2835 8.65486 11.3551 9.18455 11.5754 9.29424C11.7957 9.40486 11.941 9.45736 11.9945 9.55018C12.047 9.64299 12.047 10.0789 11.866 10.5908Z" fill="#FAFAFA"/>
</g>
</svg>
