<svg width="31" height="31" viewBox="0 0 31 31" fill="none" xmlns="http://www.w3.org/2000/svg">
<g clip-path="url(#clip0)">
<path d="M20.8881 26.0697C20.4511 26.5067 19.7631 26.5067 19.326 26.0697C18.9038 25.6474 18.9038 24.9446 19.326 24.5233L27.2468 16.6025L1.10932 16.6025C0.500025 16.6025 -5.72205e-06 16.1183 -5.72205e-06 15.509C-5.72205e-06 14.8997 0.500025 14.3997 1.10932 14.3997L27.2468 14.3997L19.326 6.49364C18.9038 6.0566 18.9038 5.35282 19.326 4.93153C19.7631 4.4945 20.4511 4.4945 20.8881 4.93153L30.684 14.7274C31.1063 15.1497 31.1063 15.8525 30.684 16.2738L20.8881 26.0697Z" fill="#C8AE5A"/>
</g>
<defs>
<clipPath id="clip0">
<rect width="31" height="31" fill="white" transform="translate(31 31) rotate(-180)"/>
</clipPath>
</defs>
</svg>
